<svg width="129" height="52" viewBox="0 0 129 52" fill="none" xmlns="http://www.w3.org/2000/svg">
<g filter="url(#filter0_d_448_2548)">
<path d="M8 0.5H120.522C122.455 0.5 124.022 2.067 124.022 4V38.087C124.022 40.02 122.455 41.587 120.522 41.587H8C6.06701 41.587 4.5 40.02 4.5 38.087V4C4.5 2.06701 6.067 0.5 8 0.5Z" fill="white" stroke="#CB3C43"/>
<path d="M41.3043 30.6087H124.522V42C124.522 43.1046 123.626 44 122.522 44H41.3043V30.6087Z" fill="#CB3C43"/>
<path d="M61.0036 40.5652V34.0198H63.6244C64.1059 34.0198 64.5076 34.0912 64.8293 34.2339C65.151 34.3767 65.3929 34.5748 65.5548 34.8284C65.7167 35.0798 65.7977 35.3696 65.7977 35.6977C65.7977 35.9534 65.7465 36.1782 65.6443 36.3721C65.542 36.5638 65.4014 36.7215 65.2224 36.8451C65.0455 36.9665 64.8431 37.0528 64.6152 37.104V37.1679C64.8644 37.1785 65.0978 37.2488 65.3151 37.3788C65.5345 37.5088 65.7125 37.691 65.8488 37.9253C65.9852 38.1576 66.0534 38.4346 66.0534 38.7563C66.0534 39.1036 65.9671 39.4136 65.7945 39.6863C65.624 39.9569 65.3715 40.1711 65.037 40.3287C64.7025 40.4864 64.2902 40.5652 63.8002 40.5652H61.0036ZM62.3875 39.4339H63.5157C63.9014 39.4339 64.1826 39.3603 64.3595 39.2133C64.5363 39.0642 64.6247 38.866 64.6247 38.6189C64.6247 38.4378 64.5811 38.278 64.4937 38.1395C64.4063 38.001 64.2817 37.8923 64.1198 37.8135C63.96 37.7346 63.7693 37.6952 63.5477 37.6952H62.3875V39.4339ZM62.3875 36.7588H63.4134C63.6031 36.7588 63.7714 36.7258 63.9184 36.6597C64.0676 36.5915 64.1848 36.4956 64.27 36.3721C64.3573 36.2485 64.401 36.1004 64.401 35.9278C64.401 35.6913 64.3169 35.5006 64.1485 35.3557C63.9823 35.2108 63.7458 35.1384 63.439 35.1384H62.3875V36.7588ZM66.3903 34.0198H67.9404L69.4329 36.8387H69.4969L70.9894 34.0198H72.5395L70.152 38.2513V40.5652H68.7777V38.2513L66.3903 34.0198Z" fill="white"/>
<path d="M93.2611 34.0198V40.5652H92.0658L89.2181 36.4456H89.1702V40.5652H87.7863V34.0198H89.0008L91.8261 38.1363H91.8836V34.0198H93.2611ZM99.9997 36.3113H98.5998C98.5743 36.1302 98.522 35.9694 98.4432 35.8287C98.3644 35.686 98.2632 35.5645 98.1396 35.4644C98.016 35.3643 97.8733 35.2875 97.7113 35.2343C97.5515 35.181 97.3779 35.1544 97.1904 35.1544C96.8516 35.1544 96.5565 35.2385 96.3051 35.4069C96.0537 35.5731 95.8587 35.816 95.7202 36.1356C95.5817 36.453 95.5125 36.8387 95.5125 37.2925C95.5125 37.7591 95.5817 38.1512 95.7202 38.4687C95.8608 38.7861 96.0568 39.0258 96.3083 39.1878C96.5597 39.3497 96.8505 39.4307 97.1808 39.4307C97.3662 39.4307 97.5377 39.4062 97.6953 39.3572C97.8551 39.3081 97.9968 39.2368 98.1204 39.143C98.244 39.0471 98.3463 38.931 98.4272 38.7947C98.5103 38.6583 98.5679 38.5027 98.5998 38.328L99.9997 38.3344C99.9635 38.6348 99.8729 38.9246 99.728 39.2037C99.5853 39.4807 99.3924 39.729 99.1495 39.9484C98.9088 40.1657 98.6211 40.3383 98.2866 40.4662C97.9542 40.5919 97.5782 40.6547 97.1584 40.6547C96.5746 40.6547 96.0526 40.5226 95.5924 40.2584C95.1343 39.9942 94.772 39.6118 94.5057 39.1111C94.2415 38.6103 94.1094 38.0042 94.1094 37.2925C94.1094 36.5787 94.2436 35.9715 94.5121 35.4708C94.7806 34.9701 95.1449 34.5887 95.6051 34.3266C96.0654 34.0624 96.5831 33.9303 97.1584 33.9303C97.5377 33.9303 97.8892 33.9836 98.2131 34.0901C98.5391 34.1966 98.8278 34.3522 99.0792 34.5567C99.3306 34.7591 99.5352 35.0074 99.6929 35.3014C99.8527 35.5954 99.9549 35.9321 99.9997 36.3113Z" fill="white"/>
<path fill-rule="evenodd" clip-rule="evenodd" d="M39.5147 30.6087C36.6973 36.2779 30.8471 40.1739 24.087 40.1739C17.3268 40.1739 11.4766 36.2779 8.65925 30.6087H4V42C4 43.1046 4.89543 44 6 44H41.3043V30.6087H39.5147ZM11.9479 30.6087H36.2261C33.6844 34.6322 29.1978 37.3044 24.087 37.3044C18.9761 37.3044 14.4895 34.6322 11.9479 30.6087Z" fill="#CB3C43"/>
<circle cx="24.0869" cy="22" r="12.4348" fill="white"/>
<ellipse cx="24.0869" cy="22" rx="12.5217" ry="12.5217" fill="white"/>
<path d="M23.953 19.4588L21.903 20.5251C21.321 19.3168 20.3454 19.2952 20.2084 19.2952C18.8427 19.2952 18.1584 20.1968 18.1584 22.0006C18.1584 23.4552 18.7267 24.7061 20.2084 24.7061C21.1014 24.7061 21.7296 24.2685 22.0949 23.3941L23.9802 24.3506C23.5994 25.0609 22.3948 26.7561 19.9628 26.7561C18.5681 26.7561 15.3986 26.1192 15.3986 22.0013C15.3986 18.3794 18.0522 17.2458 19.8807 17.2458C21.7765 17.2452 23.1329 17.9833 23.953 19.4588V19.4588ZM32.7808 19.4588L30.7579 20.5251C30.1717 19.3051 29.1707 19.2952 29.0362 19.2952C27.6699 19.2952 26.9861 20.1968 26.9861 22.0006C26.9861 23.4539 27.5557 24.7061 29.0362 24.7061C29.9279 24.7061 30.5573 24.2685 30.9208 23.3941L32.8339 24.3506C32.7043 24.582 31.5139 26.7561 28.8171 26.7561C27.4169 26.7561 24.2529 26.147 24.2529 22.0013C24.2529 18.3807 26.9047 17.2458 28.735 17.2458C30.6302 17.2452 31.9798 17.9833 32.7808 19.4588V19.4588ZM24.0598 6.69568C15.2462 6.69568 8.78259 13.7962 8.78259 22C8.78259 30.5464 15.793 37.3044 24.0598 37.3044C32.0779 37.3044 39.3913 31.0796 39.3913 22C39.3913 13.4919 32.8117 6.69568 24.0598 6.69568V6.69568ZM24.1135 34.5157C17.1685 34.5157 11.5429 28.7741 11.5429 22C11.5429 15.4944 16.8149 9.45602 24.1147 9.45602C31.0591 9.45602 36.6309 14.9767 36.6309 21.9994C36.6303 29.509 30.4796 34.5157 24.1135 34.5157V34.5157Z" fill="#CB3C43"/>
<circle cx="93.9131" cy="16.2609" r="9.3913" fill="white"/>
<path d="M93.8946 4.78259C100.365 4.78259 105.391 9.77656 105.391 16.2609C105.391 23.0738 99.9068 27.7391 93.8946 27.7391C87.6695 27.7391 82.4348 22.6109 82.4348 16.2609C82.4348 10.1098 87.2807 4.78259 93.8946 4.78259ZM85.0174 13.1645C84.6749 14.1087 84.5037 15.1408 84.5037 16.2609C84.5037 21.3937 88.7664 25.6286 93.9316 25.6286C99.5967 25.6286 102.133 20.917 102.193 20.8105L97.8703 18.8851C97.5139 20.6022 95.9634 21.3381 94.7138 21.4492V23.2126H93.3808V21.4446C92.108 21.4307 90.9463 20.9725 89.8957 20.07L91.4739 18.4732C92.9411 19.8339 95.4728 19.945 95.4728 18.3714C95.4728 18.0844 95.371 17.853 95.1674 17.6725C94.5101 17.3948 95.084 17.6679 85.0174 13.1645ZM93.9316 6.83294C92.1543 6.83294 88.7293 7.23561 86.0403 11.1373L90.4279 13.1043C90.8908 11.6557 92.2978 11.1188 93.3808 11.054V9.29059H94.7138V11.054C95.7644 11.1095 96.7225 11.4659 97.5833 12.1185L96.0884 13.6551C94.1121 12.2712 92.2237 13.2848 92.8486 14.1688C95.3201 15.2843 94.8758 15.0853 97.1529 16.0942L103.036 18.7185C103.225 17.9132 103.322 17.094 103.322 16.2609C103.322 13.6227 102.406 11.4011 100.578 9.60069C98.7589 7.75398 96.542 6.83294 93.9316 6.83294Z" fill="#CB3C43"/>
<circle cx="67.1304" cy="16.2609" r="9.3913" fill="white"/>
<path d="M70.2268 13.4098V18.1029H68.917V23.6801H65.3485V18.1076H64.0387V13.4098C64.0387 13.2062 64.1128 13.0303 64.2516 12.8868C64.3951 12.7433 64.571 12.6693 64.7746 12.6693H69.4909C69.6806 12.6693 69.8519 12.7433 70.0046 12.8868C70.1481 13.0349 70.2268 13.2062 70.2268 13.4098V13.4098ZM65.529 10.4616C65.529 9.38315 66.0613 8.84164 67.1258 8.84164C68.1903 8.84164 68.7226 9.38315 68.7226 10.4616C68.7226 11.5261 68.1903 12.0583 67.1258 12.0583C66.0613 12.0583 65.529 11.5261 65.529 10.4616ZM67.1119 4.78259C73.6749 4.78259 78.6087 9.87839 78.6087 16.2609C78.6087 23.0691 73.1241 27.7391 67.1119 27.7391C60.9099 27.7391 55.6522 22.6711 55.6522 16.2609C55.6522 10.1098 60.498 4.78259 67.1119 4.78259ZM67.1489 6.85146C61.6782 6.85146 57.721 11.3826 57.721 16.2609C57.721 21.3428 61.9421 25.6471 67.1489 25.6471C71.9254 25.6471 76.5352 21.8935 76.5352 16.2609C76.5398 10.9938 72.3604 6.85146 67.1489 6.85146V6.85146Z" fill="#CB3C43"/>
</g>
<defs>
<filter id="filter0_d_448_2548" x="0" y="0" width="128.522" height="52" filterUnits="userSpaceOnUse" color-interpolation-filters="sRGB">
<feFlood flood-opacity="0" result="BackgroundImageFix"/>
<feColorMatrix in="SourceAlpha" type="matrix" values="0 0 0 0 0 0 0 0 0 0 0 0 0 0 0 0 0 0 127 0" result="hardAlpha"/>
<feOffset dy="4"/>
<feGaussianBlur stdDeviation="2"/>
<feComposite in2="hardAlpha" operator="out"/>
<feColorMatrix type="matrix" values="0 0 0 0 0 0 0 0 0 0 0 0 0 0 0 0 0 0 0.25 0"/>
<feBlend mode="normal" in2="BackgroundImageFix" result="effect1_dropShadow_448_2548"/>
<feBlend mode="normal" in="SourceGraphic" in2="effect1_dropShadow_448_2548" result="shape"/>
</filter>
</defs>
</svg>
