<svg width="74" height="75" viewBox="0 0 74 75" fill="none" xmlns="http://www.w3.org/2000/svg">
<mask id="path-1-inside-1_325_2271" fill="white">
<path fill-rule="evenodd" clip-rule="evenodd" d="M70.3 1.98425H3.70001V68.5843H29.8794L37 74.7509L44.1207 68.5843H70.3V1.98425Z"/>
</mask>
<path fill-rule="evenodd" clip-rule="evenodd" d="M70.3 1.98425H3.70001V68.5843H29.8794L37 74.7509L44.1207 68.5843H70.3V1.98425Z" fill="white"/>
<path d="M3.70001 1.98425V0.984253H2.70001V1.98425H3.70001ZM70.3 1.98425H71.3V0.984253H70.3V1.98425ZM3.70001 68.5843H2.70001V69.5843H3.70001V68.5843ZM29.8794 68.5843L30.534 67.8283L30.2522 67.5843H29.8794V68.5843ZM37 74.7509L36.3454 75.5069L37 76.0738L37.6547 75.5069L37 74.7509ZM44.1207 68.5843V67.5843H43.7478L43.466 67.8283L44.1207 68.5843ZM70.3 68.5843V69.5843H71.3V68.5843H70.3ZM3.70001 2.98425H70.3V0.984253H3.70001V2.98425ZM4.70001 68.5843V1.98425H2.70001V68.5843H4.70001ZM29.8794 67.5843H3.70001V69.5843H29.8794V67.5843ZM37.6547 73.995L30.534 67.8283L29.2247 69.3402L36.3454 75.5069L37.6547 73.995ZM43.466 67.8283L36.3454 73.995L37.6547 75.5069L44.7753 69.3402L43.466 67.8283ZM70.3 67.5843H44.1207V69.5843H70.3V67.5843ZM69.3 1.98425V68.5843H71.3V1.98425H69.3Z" fill="#A23036" mask="url(#path-1-inside-1_325_2271)"/>
<rect width="48" height="48" transform="translate(13 11.751)" fill="white"/>
<circle cx="37" cy="35.751" r="23.5" fill="white" stroke="#585857"/>
<circle cx="37" cy="35.751" r="15.5" fill="white" stroke="#585857"/>
<circle cx="37" cy="35.751" r="7.5" fill="white" stroke="#585857"/>
</svg>
