<svg width="74" height="74" viewBox="0 0 74 74" fill="none" xmlns="http://www.w3.org/2000/svg">
<mask id="path-1-inside-1_448_1172" fill="white">
<path fill-rule="evenodd" clip-rule="evenodd" d="M70.3 1.23334H3.70001V67.8333H29.8794L37 74L44.1207 67.8333H70.3V1.23334Z"/>
</mask>
<path fill-rule="evenodd" clip-rule="evenodd" d="M70.3 1.23334H3.70001V67.8333H29.8794L37 74L44.1207 67.8333H70.3V1.23334Z" fill="white"/>
<path d="M3.70001 1.23334V0.233337H2.70001V1.23334H3.70001ZM70.3 1.23334H71.3V0.233337H70.3V1.23334ZM3.70001 67.8333H2.70001V68.8333H3.70001V67.8333ZM29.8794 67.8333L30.534 67.0774L30.2522 66.8333H29.8794V67.8333ZM37 74L36.3454 74.7559L37 75.3229L37.6547 74.7559L37 74ZM44.1207 67.8333V66.8333H43.7478L43.466 67.0774L44.1207 67.8333ZM70.3 67.8333V68.8333H71.3V67.8333H70.3ZM3.70001 2.23334H70.3V0.233337H3.70001V2.23334ZM4.70001 67.8333V1.23334H2.70001V67.8333H4.70001ZM29.8794 66.8333H3.70001V68.8333H29.8794V66.8333ZM37.6547 73.2441L30.534 67.0774L29.2247 68.5893L36.3454 74.7559L37.6547 73.2441ZM43.466 67.0774L36.3454 73.2441L37.6547 74.7559L44.7753 68.5893L43.466 67.0774ZM70.3 66.8333H44.1207V68.8333H70.3V66.8333ZM69.3 1.23334V67.8333H71.3V1.23334H69.3Z" fill="#A23036" mask="url(#path-1-inside-1_448_1172)"/>
<line x1="15.3" y1="11.6" x2="15.3" y2="55" stroke="#585857" stroke-linecap="round"/>
<line x1="15.3" y1="55" x2="58.7" y2="55" stroke="#585857" stroke-linecap="round"/>
<path d="M20.3502 47.9559L28.8105 29.9184" stroke="#585857" stroke-linecap="round"/>
<path d="M29.6033 29.1255L44.5026 32.7991" stroke="#585857" stroke-linecap="round"/>
<line x1="44.5352" y1="32.5892" x2="54.3455" y2="18.1584" stroke="#585857" stroke-linecap="round"/>
<circle cx="29.0714" cy="28.5429" r="1.58571" fill="white" stroke="#CB3C43"/>
<ellipse cx="44.9286" cy="33.3" rx="1.58571" ry="1.58571" fill="white" stroke="#CB3C43"/>
<circle cx="54.4428" cy="17.4429" r="1.58571" fill="white" stroke="#CB3C43"/>
</svg>
