<svg width="74" height="74" viewBox="0 0 74 74" fill="none" xmlns="http://www.w3.org/2000/svg">
<mask id="path-1-inside-1_448_1199" fill="white">
<path fill-rule="evenodd" clip-rule="evenodd" d="M70.3 1.23334H3.70001V67.8333H29.8794L37 74L44.1207 67.8333H70.3V1.23334Z"/>
</mask>
<path fill-rule="evenodd" clip-rule="evenodd" d="M70.3 1.23334H3.70001V67.8333H29.8794L37 74L44.1207 67.8333H70.3V1.23334Z" fill="white"/>
<path d="M3.70001 1.23334V0.233337H2.70001V1.23334H3.70001ZM70.3 1.23334H71.3V0.233337H70.3V1.23334ZM3.70001 67.8333H2.70001V68.8333H3.70001V67.8333ZM29.8794 67.8333L30.534 67.0774L30.2522 66.8333H29.8794V67.8333ZM37 74L36.3454 74.7559L37 75.3229L37.6547 74.7559L37 74ZM44.1207 67.8333V66.8333H43.7478L43.466 67.0774L44.1207 67.8333ZM70.3 67.8333V68.8333H71.3V67.8333H70.3ZM3.70001 2.23334H70.3V0.233337H3.70001V2.23334ZM4.70001 67.8333V1.23334H2.70001V67.8333H4.70001ZM29.8794 66.8333H3.70001V68.8333H29.8794V66.8333ZM37.6547 73.2441L30.534 67.0774L29.2247 68.5893L36.3454 74.7559L37.6547 73.2441ZM43.466 67.0774L36.3454 73.2441L37.6547 74.7559L44.7753 68.5893L43.466 67.0774ZM70.3 66.8333H44.1207V68.8333H70.3V66.8333ZM69.3 1.23334V67.8333H71.3V1.23334H69.3Z" fill="#A23036" mask="url(#path-1-inside-1_448_1199)"/>
<mask id="path-3-inside-2_448_1199" fill="white">
<path fill-rule="evenodd" clip-rule="evenodd" d="M60.4908 35.6172C58.8569 28.5941 50.5815 24.5184 41.9371 26.5295C33.2927 28.5405 27.6382 35.9717 29.2591 42.9392C30.8801 49.9067 39.1556 53.983 47.8 51.9719C50.1464 51.4261 52.2695 50.472 54.0901 49.259C55.9282 50.0964 59.3663 51.3433 63.4165 50.401C63.6152 50.3548 63.7595 50.2074 63.7932 50.0062C63.8346 49.8033 63.7468 49.5992 63.5773 49.4936C63.5396 49.4702 60.3474 47.3193 58.8669 44.4178C60.5364 41.7274 61.1965 38.6507 60.4908 35.6172ZM45.4395 41.1789C46.3979 40.7435 46.9487 39.6795 46.701 38.6148C46.6846 38.5442 46.665 38.4751 46.6425 38.4077C46.7159 38.549 46.7727 38.7 46.8095 38.8581C47.0425 39.8597 46.4689 40.8906 45.4395 41.1789Z"/>
</mask>
<path fill-rule="evenodd" clip-rule="evenodd" d="M60.4908 35.6172C58.8569 28.5941 50.5815 24.5184 41.9371 26.5295C33.2927 28.5405 27.6382 35.9717 29.2591 42.9392C30.8801 49.9067 39.1556 53.983 47.8 51.9719C50.1464 51.4261 52.2695 50.472 54.0901 49.259C55.9282 50.0964 59.3663 51.3433 63.4165 50.401C63.6152 50.3548 63.7595 50.2074 63.7932 50.0062C63.8346 49.8033 63.7468 49.5992 63.5773 49.4936C63.5396 49.4702 60.3474 47.3193 58.8669 44.4178C60.5364 41.7274 61.1965 38.6507 60.4908 35.6172ZM45.4395 41.1789C46.3979 40.7435 46.9487 39.6795 46.701 38.6148C46.6846 38.5442 46.665 38.4751 46.6425 38.4077C46.7159 38.549 46.7727 38.7 46.8095 38.8581C47.0425 39.8597 46.4689 40.8906 45.4395 41.1789Z" fill="white"/>
<path d="M60.4908 35.6172L59.5168 35.8438L60.4908 35.6172ZM29.2591 42.9392L30.2331 42.7126L29.2591 42.9392ZM47.8 51.9719L48.0266 52.9459L47.8 51.9719ZM54.0901 49.259L53.5356 48.4268L53.9985 48.1184L54.5047 48.349L54.0901 49.259ZM63.4165 50.401L63.6431 51.375L63.6431 51.375L63.4165 50.401ZM63.7932 50.0062L62.8069 49.8411L62.8099 49.8237L62.8134 49.8064L63.7932 50.0062ZM63.5773 49.4936L63.0488 50.3426L63.0488 50.3426L63.5773 49.4936ZM58.8669 44.4178L57.9761 44.8723L57.7197 44.3698L58.0172 43.8905L58.8669 44.4178ZM46.701 38.6148L47.675 38.3882L47.675 38.3882L46.701 38.6148ZM45.4395 41.1789L45.7092 42.1419L45.0258 40.2685L45.4395 41.1789ZM46.6425 38.4077L45.6941 38.725L47.5298 37.9465L46.6425 38.4077ZM46.8095 38.8581L45.8355 39.0847L45.8355 39.0847L46.8095 38.8581ZM41.7105 25.5555C50.6989 23.4644 59.665 27.6543 61.4648 35.3906L59.5168 35.8438C58.0488 29.5339 50.4641 25.5724 42.1637 27.5035L41.7105 25.5555ZM28.2852 43.1658C26.499 35.4883 32.7181 27.6475 41.7105 25.5555L42.1637 27.5035C33.8673 29.4336 28.7773 36.4551 30.2331 42.7126L28.2852 43.1658ZM48.0266 52.9459C39.0411 55.0364 30.0726 50.8489 28.2852 43.1658L30.2331 42.7126C31.6876 48.9645 39.2701 52.9297 47.5734 50.9979L48.0266 52.9459ZM54.6446 50.0912C52.7274 51.3686 50.4937 52.372 48.0266 52.9459L47.5734 50.9979C49.7991 50.4802 51.8117 49.5754 53.5356 48.4268L54.6446 50.0912ZM63.6431 51.375C59.2755 52.3911 55.5911 51.0417 53.6755 50.169L54.5047 48.349C56.2653 49.1511 59.4572 50.2954 63.1899 49.427L63.6431 51.375ZM64.7795 50.1714C64.6761 50.7888 64.217 51.2415 63.6431 51.375L63.1899 49.427C63.111 49.4454 63.0218 49.4896 62.9457 49.5688C62.8686 49.6491 62.8227 49.747 62.8069 49.8411L64.7795 50.1714ZM64.1058 48.6447C64.6379 48.9759 64.8961 49.6025 64.773 50.2061L62.8134 49.8064C62.7731 50.004 62.8558 50.2224 63.0488 50.3426L64.1058 48.6447ZM59.7576 43.9632C60.4199 45.2612 61.4898 46.4299 62.438 47.297C63.384 48.1621 64.1429 48.6678 64.1058 48.6447L63.0488 50.3426C62.974 50.296 62.1179 49.7145 61.0883 48.7729C60.0609 47.8334 58.7944 46.4759 57.9761 44.8723L59.7576 43.9632ZM61.4648 35.3906C62.2389 38.7181 61.5049 42.0634 59.7165 44.9451L58.0172 43.8905C59.568 41.3915 60.1541 38.5833 59.5168 35.8438L61.4648 35.3906ZM47.675 38.3882C48.0328 39.926 47.2369 41.4607 45.8531 42.0894L45.0258 40.2685C45.5589 40.0263 45.8647 39.433 45.727 38.8414L47.675 38.3882ZM47.5908 38.0904C47.6233 38.1876 47.6515 38.2869 47.675 38.3882L45.727 38.8414C45.7177 38.8014 45.7067 38.7626 45.6941 38.725L47.5908 38.0904ZM45.8355 39.0847C45.8184 39.011 45.7915 38.9387 45.7552 38.8689L47.5298 37.9465C47.6404 38.1593 47.727 38.3889 47.7835 38.6315L45.8355 39.0847ZM45.1698 40.216C45.668 40.0764 45.9511 39.5817 45.8355 39.0847L47.7835 38.6315C48.1339 40.1378 47.2698 41.7048 45.7092 42.1419L45.1698 40.216Z" fill="#585857" mask="url(#path-3-inside-2_448_1199)"/>
<circle r="3.68186" transform="matrix(0.678033 0.735031 0.735032 -0.678033 48.4323 39.756)" fill="white"/>
<mask id="path-6-inside-3_448_1199" fill="white">
<path fill-rule="evenodd" clip-rule="evenodd" d="M11.1042 28.4251C10.9562 21.216 17.9713 15.2258 26.8447 15.0436C35.718 14.8614 43.0301 20.6691 43.177 27.8211C43.3238 34.9732 36.3087 40.964 27.4353 41.1462C25.0269 41.1956 22.734 40.7945 20.6706 40.0678C19.0957 41.3325 16.0711 43.3885 11.9136 43.4739C11.7097 43.478 11.5335 43.3708 11.4512 43.1841C11.3611 42.9977 11.3958 42.7782 11.5341 42.6341C11.5648 42.6021 14.1282 39.7306 14.8477 36.5536C12.5664 34.3579 11.1681 31.539 11.1042 28.4251ZM25.1622 28.1929C25.1839 29.2503 26.0401 30.1274 27.1539 30.1045C27.441 30.0986 27.7084 30.0377 27.9467 29.9316C27.8702 29.9411 27.7925 29.9467 27.7138 29.9483C26.4683 29.9739 25.4379 28.985 25.4123 27.7395C25.4073 27.4965 25.4409 27.2617 25.5076 27.041C25.2832 27.3768 25.1537 27.778 25.1622 28.1929Z"/>
</mask>
<path fill-rule="evenodd" clip-rule="evenodd" d="M11.1042 28.4251C10.9562 21.216 17.9713 15.2258 26.8447 15.0436C35.718 14.8614 43.0301 20.6691 43.177 27.8211C43.3238 34.9732 36.3087 40.964 27.4353 41.1462C25.0269 41.1956 22.734 40.7945 20.6706 40.0678C19.0957 41.3325 16.0711 43.3885 11.9136 43.4739C11.7097 43.478 11.5335 43.3708 11.4512 43.1841C11.3611 42.9977 11.3958 42.7782 11.5341 42.6341C11.5648 42.6021 14.1282 39.7306 14.8477 36.5536C12.5664 34.3579 11.1681 31.539 11.1042 28.4251ZM25.1622 28.1929C25.1839 29.2503 26.0401 30.1274 27.1539 30.1045C27.441 30.0986 27.7084 30.0377 27.9467 29.9316C27.8702 29.9411 27.7925 29.9467 27.7138 29.9483C26.4683 29.9739 25.4379 28.985 25.4123 27.7395C25.4073 27.4965 25.4409 27.2617 25.5076 27.041C25.2832 27.3768 25.1537 27.778 25.1622 28.1929Z" fill="white"/>
<path d="M26.8447 15.0436L26.8652 16.0434L26.8447 15.0436ZM11.1042 28.4251L12.104 28.4046L11.1042 28.4251ZM43.177 27.8211L42.1772 27.8417L43.177 27.8211ZM27.4353 41.1462L27.4148 40.1464L27.4353 41.1462ZM20.6706 40.0678L21.0028 39.1245L20.4782 38.9398L20.0445 39.288L20.6706 40.0678ZM11.9136 43.4739L11.9342 44.4737L11.9342 44.4737L11.9136 43.4739ZM11.4512 43.1841L12.3663 42.7809L12.3592 42.7648L12.3515 42.7489L11.4512 43.1841ZM11.5341 42.6341L12.2556 43.3266L12.2556 43.3266L11.5341 42.6341ZM14.8477 36.5536L15.823 36.7745L15.9476 36.2243L15.5412 35.8331L14.8477 36.5536ZM27.1539 30.1045L27.1745 31.1043L27.1745 31.1043L27.1539 30.1045ZM25.1622 28.1929L24.1624 28.2135L24.1624 28.2135L25.1622 28.1929ZM27.9467 29.9316L28.3534 30.8452L27.8241 28.9392L27.9467 29.9316ZM27.7138 29.9483L27.7343 30.9481L27.7343 30.9481L27.7138 29.9483ZM25.4123 27.7395L26.4121 27.719L26.4121 27.719L25.4123 27.7395ZM25.5076 27.041L26.4649 27.3298L24.6761 26.4854L25.5076 27.041ZM26.8241 14.0438C17.5976 14.2333 9.94135 20.5044 10.1044 28.4456L12.104 28.4046C11.971 21.9275 18.3449 16.2183 26.8652 16.0434L26.8241 14.0438ZM44.1768 27.8006C44.0149 19.9198 36.0547 13.8543 26.8241 14.0438L26.8652 16.0434C35.3814 15.8685 42.0453 21.4184 42.1772 27.8417L44.1768 27.8006ZM27.4559 42.146C36.6794 41.9566 44.3387 35.6872 44.1768 27.8006L42.1772 27.8417C42.309 34.2592 35.9381 39.9714 27.4148 40.1464L27.4559 42.146ZM20.3384 41.011C22.5114 41.7762 24.9235 42.198 27.4559 42.146L27.4148 40.1464C25.1302 40.1933 22.9567 39.8127 21.0028 39.1245L20.3384 41.011ZM11.9342 44.4737C16.4174 44.3816 19.6554 42.1655 21.2967 40.8475L20.0445 39.288C18.536 40.4994 15.7247 42.3954 11.8931 42.4741L11.9342 44.4737ZM10.5361 43.5874C10.7885 44.1602 11.3451 44.4857 11.9342 44.4737L11.8931 42.4741C11.9741 42.4724 12.0714 42.4933 12.1647 42.5513C12.2593 42.61 12.3278 42.6936 12.3663 42.7809L10.5361 43.5874ZM10.8126 41.9417C10.3786 42.3939 10.2828 43.0648 10.5509 43.6194L12.3515 42.7489C12.4393 42.9305 12.413 43.1625 12.2556 43.3266L10.8126 41.9417ZM13.8724 36.3327C13.5505 37.7539 12.8018 39.1503 12.0967 40.2244C11.3931 41.2961 10.7824 41.9732 10.8126 41.9417L12.2556 43.3266C12.3166 43.263 13.0028 42.4884 13.7686 41.322C14.5327 40.1581 15.4254 38.5303 15.823 36.7745L13.8724 36.3327ZM10.1044 28.4456C10.1746 31.8612 11.7107 34.9223 14.1543 37.2741L15.5412 35.8331C13.4221 33.7936 12.1617 31.2167 12.104 28.4046L10.1044 28.4456ZM27.1334 29.1047C26.5905 29.1159 26.1728 28.6966 26.162 28.1724L24.1624 28.2135C24.1951 29.804 25.4896 31.1389 27.1745 31.1043L27.1334 29.1047ZM27.54 29.0181C27.4267 29.0685 27.291 29.1015 27.1334 29.1047L27.1745 31.1043C27.5911 31.0957 27.99 31.007 28.3534 30.8452L27.54 29.0181ZM27.7343 30.9481C27.8472 30.9458 27.959 30.9377 28.0693 30.9241L27.8241 28.9392C27.7814 28.9445 27.7378 28.9476 27.6932 28.9486L27.7343 30.9481ZM24.4125 27.76C24.4494 29.5577 25.9366 30.9851 27.7343 30.9481L27.6932 28.9486C26.9999 28.9628 26.4263 28.4123 26.4121 27.719L24.4125 27.76ZM24.5502 26.7521C24.4537 27.0719 24.4054 27.411 24.4125 27.76L26.4121 27.719C26.4093 27.582 26.4282 27.4515 26.4649 27.3298L24.5502 26.7521ZM26.162 28.1724C26.158 27.9793 26.2186 27.7768 26.339 27.5965L24.6761 26.4854C24.3478 26.9767 24.1493 27.5768 24.1624 28.2135L26.162 28.1724Z" fill="#585857" mask="url(#path-6-inside-3_448_1199)"/>
<circle cx="26.6985" cy="28.2707" r="3.03176" transform="rotate(118.417 26.6985 28.2707)" fill="white"/>
<circle cx="17.7313" cy="28.4428" r="1.38213" fill="#CB3C43" stroke="white"/>
<circle cx="24.4956" cy="28.4428" r="1.38213" fill="#CB3C43" stroke="white"/>
<circle cx="31.2598" cy="28.4428" r="1.38213" fill="#CB3C43" stroke="white"/>
</svg>
