<?xml version="1.0" encoding="UTF-8" standalone="no"?>
<svg
   xmlns:dc="http://purl.org/dc/elements/1.1/"
   xmlns:cc="http://creativecommons.org/ns#"
   xmlns:rdf="http://www.w3.org/1999/02/22-rdf-syntax-ns#"
   xmlns:svg="http://www.w3.org/2000/svg"
   xmlns="http://www.w3.org/2000/svg"
   viewBox="0 0 541.396 238.01601"
   height="238.01601"
   width="541.396"
   xml:space="preserve"
   id="svg517"
   version="1.1"><metadata
     id="metadata523"><rdf:RDF><cc:Work
         rdf:about=""><dc:format>image/svg+xml</dc:format><dc:type
           rdf:resource="http://purl.org/dc/dcmitype/StillImage" /><dc:title></dc:title></cc:Work></rdf:RDF></metadata><defs
     id="defs521"><clipPath
       id="clipPath533"
       clipPathUnits="userSpaceOnUse"><path
         id="path531"
         d="M 0,178.512 H 406.047 V 0 H 0 Z" /></clipPath></defs><g
     transform="matrix(1.3333333,0,0,-1.3333333,0,238.016)"
     id="g525"><g
       id="g527"><g
         clip-path="url(#clipPath533)"
         id="g529"><g
           transform="translate(18.3185,14.3564)"
           id="g535"><path
             id="path537"
             style="fill:#575756;fill-opacity:1;fill-rule:nonzero;stroke:none"
             d="m 0,0 c -0.835,0.43 -1.578,1.04 -2.205,1.802 -0.181,0.221 -0.351,0.453 -0.508,0.694 -0.941,1.444 -1.442,3.218 -1.442,4.988 0,1.935 0.597,3.894 1.719,5.408 0.075,0.1 0.152,0.198 0.231,0.295 0.627,0.762 1.37,1.373 2.205,1.802 0.879,0.452 1.855,0.684 2.779,0.684 2.073,0 3.777,-0.852 4.849,-2.289 L 8.406,12.342 6.322,10.787 5.544,11.829 C 4.987,12.577 3.963,13.071 2.786,13.072 1.623,13.07 0.544,12.493 -0.26,11.479 -1.048,10.487 -1.555,9.086 -1.555,7.484 c 0,-1.452 0.417,-2.736 1.081,-3.698 0.818,-1.183 1.99,-1.868 3.26,-1.87 1.177,0.002 2.201,0.496 2.758,1.243 L 6.322,4.201 8.406,2.646 7.628,1.604 C 6.55,0.159 4.788,-0.684 2.779,-0.684 1.798,-0.684 0.869,-0.447 0,0" /></g><g
           transform="translate(32.1559,21.8573)"
           id="g539"><path
             id="path541"
             style="fill:#575756;fill-opacity:1;fill-rule:nonzero;stroke:none"
             d="M 0,0 C 0,-3.165 2.145,-5.564 4.562,-5.564 6.98,-5.564 9.125,-3.165 9.125,0 9.125,3.166 6.98,5.565 4.562,5.565 2.145,5.565 0,3.166 0,0 M 1.704,-7.49 C 0.844,-7.064 0.077,-6.458 -0.571,-5.698 -1.887,-4.157 -2.6,-2.132 -2.6,0 c 0,2.133 0.713,4.158 2.029,5.699 0.648,0.76 1.415,1.366 2.275,1.792 0.899,0.446 1.866,0.675 2.858,0.675 0.993,0 1.96,-0.229 2.859,-0.675 C 8.281,7.065 9.048,6.459 9.697,5.699 11.012,4.158 11.725,2.133 11.725,0 11.725,-2.132 11.012,-4.157 9.697,-5.698 9.048,-6.458 8.281,-7.064 7.421,-7.49 6.522,-7.936 5.555,-8.165 4.562,-8.165 c -0.992,0 -1.959,0.229 -2.858,0.675" /></g><g
           transform="translate(56.9079,13.6757)"
           id="g543"><path
             id="path545"
             style="fill:#575756;fill-opacity:1;fill-rule:nonzero;stroke:none"
             d="m 0,0 v 9.971 c 0,2.133 -1.578,3.782 -3.406,3.782 -1.828,0 -3.406,-1.649 -3.406,-3.782 V 0 h -2.6 v 9.971 c 0,1.678 0.609,3.272 1.725,4.477 1.129,1.22 2.656,1.906 4.281,1.906 1.625,0 3.152,-0.686 4.282,-1.906 C 1.991,13.243 2.6,11.649 2.6,9.971 V 0 Z" /></g><g
           transform="translate(65.7741,21.8573)"
           id="g547"><path
             id="path549"
             style="fill:#575756;fill-opacity:1;fill-rule:nonzero;stroke:none"
             d="M 0,0 C 0,-3.165 2.145,-5.564 4.562,-5.564 6.98,-5.564 9.125,-3.165 9.125,0 9.125,3.166 6.98,5.565 4.562,5.565 2.145,5.565 0,3.166 0,0 M 1.704,-7.49 C 0.844,-7.064 0.077,-6.458 -0.571,-5.698 -1.887,-4.157 -2.6,-2.132 -2.6,0 c 0,2.133 0.713,4.158 2.029,5.699 0.648,0.76 1.415,1.366 2.275,1.792 0.899,0.446 1.866,0.675 2.858,0.675 0.993,0 1.96,-0.229 2.859,-0.675 C 8.281,7.065 9.048,6.459 9.697,5.699 11.012,4.158 11.725,2.133 11.725,0 11.725,-2.132 11.012,-4.157 9.697,-5.698 9.048,-6.458 8.281,-7.064 7.421,-7.49 6.522,-7.936 5.555,-8.165 4.562,-8.165 c -0.992,0 -1.959,0.229 -2.858,0.675" /></g><g
           transform="translate(85.0348,14.3564)"
           id="g551"><path
             id="path553"
             style="fill:#575756;fill-opacity:1;fill-rule:nonzero;stroke:none"
             d="m 0,0 c -0.835,0.43 -1.578,1.04 -2.205,1.802 -0.181,0.221 -0.351,0.453 -0.508,0.694 -0.941,1.444 -1.442,3.218 -1.442,4.988 0,1.935 0.597,3.894 1.719,5.408 0.075,0.1 0.152,0.198 0.231,0.295 0.627,0.762 1.37,1.373 2.205,1.802 0.879,0.452 1.855,0.684 2.779,0.684 2.073,0 3.777,-0.852 4.849,-2.289 L 8.406,12.342 6.322,10.787 5.544,11.829 C 4.987,12.577 3.963,13.071 2.786,13.072 1.623,13.07 0.544,12.493 -0.26,11.479 -1.048,10.487 -1.555,9.086 -1.555,7.484 c 0,-1.452 0.417,-2.736 1.081,-3.698 0.818,-1.183 1.99,-1.868 3.26,-1.87 1.177,0.002 2.201,0.496 2.758,1.243 L 6.322,4.201 8.406,2.646 7.628,1.604 C 6.55,0.159 4.788,-0.684 2.779,-0.684 1.798,-0.684 0.869,-0.447 0,0" /></g><path
           id="path555"
           style="fill:#575756;fill-opacity:1;fill-rule:nonzero;stroke:none"
           d="m 98.403,30.03 h 2.6 V 13.676 h -2.6 z m 2.204,4.281 c 0.243,-0.235 0.397,-0.569 0.397,-0.934 V 33.02 c 0,-0.718 -0.583,-1.3 -1.301,-1.3 -0.718,0 -1.3,0.582 -1.3,1.3 v 0.357 c 0,0.349 0.141,0.67 0.366,0.903 0.235,0.243 0.569,0.397 0.934,0.397 0.35,0 0.671,-0.141 0.904,-0.366" /><g
           transform="translate(126.5094,23.6464)"
           id="g557"><path
             id="path559"
             style="fill:#575756;fill-opacity:1;fill-rule:nonzero;stroke:none"
             d="M 0,0 V -9.971 H -2.6 V 0 c 0,2.134 -1.578,3.782 -3.406,3.782 -1.828,0 -3.407,-1.648 -3.407,-3.782 v -9.971 h -2.6 V 0 c 0,2.134 -1.578,3.782 -3.406,3.782 -1.828,0 -3.406,-1.648 -3.406,-3.782 v -9.971 h -2.6 V 0 c 0,1.679 0.61,3.272 1.725,4.478 1.129,1.219 2.656,1.905 4.281,1.905 1.626,0 3.152,-0.686 4.282,-1.905 0.15,-0.164 0.295,-0.339 0.425,-0.51 0.163,0.217 0.268,0.341 0.424,0.51 1.129,1.219 2.656,1.905 4.282,1.905 1.625,0 3.145,-0.678 4.274,-1.899 C -0.614,3.278 0,1.679 0,0" /></g><path
           id="path561"
           style="fill:#575756;fill-opacity:1;fill-rule:nonzero;stroke:none"
           d="m 132.775,30.03 h 2.6 V 13.676 h -2.6 z m 2.203,4.281 c 0.243,-0.235 0.397,-0.569 0.397,-0.934 V 33.02 c 0,-0.718 -0.583,-1.3 -1.301,-1.3 -0.717,0 -1.299,0.582 -1.299,1.3 v 0.357 c 0,0.349 0.14,0.67 0.365,0.903 0.235,0.243 0.569,0.397 0.934,0.397 0.35,0 0.671,-0.141 0.904,-0.366" /><g
           transform="translate(142.3288,23.7841)"
           id="g563"><path
             id="path565"
             style="fill:#575756;fill-opacity:1;fill-rule:nonzero;stroke:none"
             d="M 0,0 H 3.457 C 4.669,0 5.598,0.29 6.176,0.744 6.638,1.107 6.839,1.532 6.839,1.943 6.839,2.605 6.208,3.641 4.076,3.644 2.279,3.641 0.641,2.186 0,0 m -0.934,-7.618 c -0.881,1.076 -1.478,2.405 -1.755,3.8 -0.031,0.129 -0.184,0.821 -0.184,1.886 0,2.125 0.685,4.147 1.953,5.689 0.627,0.763 1.371,1.374 2.207,1.804 0.868,0.447 1.807,0.684 2.774,0.684 1.593,0 2.888,-0.413 3.878,-1.226 C 8.89,4.237 9.44,3.137 9.44,1.943 9.44,0.69 8.817,-0.488 7.784,-1.301 6.671,-2.176 5.163,-2.602 3.457,-2.602 h -3.556 c 0,0 -0.023,0 -0.055,-0.005 -0.058,-0.079 -0.058,-0.256 -0.052,-0.293 l 0.004,-0.02 0.003,-0.023 c 0.389,-2.692 2.249,-4.564 4.281,-4.564 1.438,0 2.428,0.463 3.012,1.245 l 0.778,1.043 2.085,-1.555 -0.778,-1.043 c -0.792,-1.062 -2.358,-2.291 -5.097,-2.291 -1.93,0 -3.719,0.906 -5.016,2.49" /></g><g
           transform="translate(164.4943,13.6757)"
           id="g567"><path
             id="path569"
             style="fill:#575756;fill-opacity:1;fill-rule:nonzero;stroke:none"
             d="m 0,0 v 9.971 c 0,2.133 -1.578,3.782 -3.406,3.782 -1.828,0 -3.406,-1.649 -3.406,-3.782 V 0 h -2.6 v 9.971 c 0,1.678 0.609,3.272 1.724,4.477 1.13,1.22 2.657,1.906 4.282,1.906 1.625,0 3.152,-0.686 4.281,-1.906 C 1.991,13.243 2.6,11.649 2.6,9.971 V 0 Z" /></g><g
           transform="translate(177.6115,16.2792)"
           id="g571"><path
             id="path573"
             style="fill:#575756;fill-opacity:1;fill-rule:nonzero;stroke:none"
             d="M 0,0 H 0.65 V -2.604 H 0 c -1.629,0 -3.159,0.688 -4.292,1.911 -1.117,1.207 -1.728,2.804 -1.728,4.487 v 15.287 h 2.603 v -5.629 c 0.203,0.019 0.274,0.021 0.43,0.021 H 0.65 v -2.604 h -3.637 c -0.267,0 -0.389,-0.059 -0.402,-0.067 -0.009,-0.018 -0.026,-0.098 -0.028,-0.118 V 3.794 C -3.417,1.653 -1.833,0 0,0" /></g><g
           transform="translate(183.6559,21.8573)"
           id="g575"><path
             id="path577"
             style="fill:#575756;fill-opacity:1;fill-rule:nonzero;stroke:none"
             d="M 0,0 C 0,-3.165 2.145,-5.564 4.562,-5.564 6.98,-5.564 9.125,-3.165 9.125,0 9.125,3.166 6.98,5.565 4.562,5.565 2.145,5.565 0,3.166 0,0 M 1.704,-7.49 C 0.844,-7.064 0.077,-6.458 -0.571,-5.698 -1.887,-4.157 -2.6,-2.132 -2.6,0 c 0,2.133 0.713,4.158 2.029,5.699 0.648,0.76 1.415,1.366 2.275,1.792 0.899,0.446 1.866,0.675 2.858,0.675 0.993,0 1.96,-0.229 2.859,-0.675 C 8.281,7.065 9.048,6.459 9.697,5.699 11.012,4.158 11.725,2.133 11.725,0 11.725,-2.132 11.012,-4.157 9.697,-5.698 9.048,-6.458 8.281,-7.064 7.421,-7.49 6.522,-7.936 5.555,-8.165 4.562,-8.165 c -0.992,0 -1.959,0.229 -2.858,0.675" /></g><g
           transform="translate(211.5949,16.6737)"
           id="g579"><path
             id="path581"
             style="fill:#575756;fill-opacity:1;fill-rule:nonzero;stroke:none"
             d="m 0,0 1.055,-0.003 c 2.999,0 5.442,2.443 5.442,5.443 0,3.001 -2.442,5.445 -5.443,5.445 H -0.43 V -0.021 C -0.226,-0.002 -0.157,0 0,0 M 9.099,5.44 C 9.099,3.295 8.259,1.27 6.742,-0.248 5.225,-1.765 3.2,-2.604 1.051,-2.604 l -1.054,0.003 c -0.269,0 -0.391,-0.061 -0.4,-0.067 C -0.415,-2.69 -0.43,-2.776 -0.43,-2.776 v -5.422 h -2.6 v 21.683 h 4.084 c 2.145,0 4.152,-0.82 5.67,-2.338 C 8.247,9.625 9.099,7.587 9.099,5.44" /></g><g
           transform="translate(229.5919,21.1767)"
           id="g583"><path
             id="path585"
             style="fill:#575756;fill-opacity:1;fill-rule:nonzero;stroke:none"
             d="m 0,0 c -0.985,0 -1.884,-0.303 -2.53,-0.815 -0.61,-0.485 -0.892,-1.064 -0.892,-1.633 0,-0.571 0.282,-1.15 0.892,-1.633 0.646,-0.514 1.545,-0.816 2.53,-0.816 0.984,0 1.883,0.302 2.529,0.816 0.61,0.483 0.891,1.062 0.891,1.633 V 0.007 C 3.246,-0.004 3.195,0 3.118,0.003 Z m -4.15,-6.121 c -1.184,0.939 -1.875,2.25 -1.875,3.673 0,1.422 0.691,2.732 1.875,3.672 1.134,0.901 2.607,1.381 4.149,1.381 l 3.169,0.002 c 0.052,0 0.148,0.014 0.187,0.03 0.017,0.027 0.057,0.144 0.065,0.318 v 0.844 c 0,1.23 -1.313,2.449 -3.195,2.449 -1.186,0 -2.216,-0.496 -2.778,-1.249 l -0.778,-1.044 -2.088,1.558 0.778,1.044 c 1.09,1.46 2.914,2.296 4.866,2.296 1.495,0 2.921,-0.49 4.014,-1.402 C 5.371,6.508 6.025,5.204 6.025,3.799 V -2.448 C 6.025,-3.871 5.332,-5.182 4.148,-6.121 3.015,-7.022 1.541,-7.503 0,-7.503 c -1.543,0 -3.016,0.481 -4.15,1.382" /></g><g
           transform="translate(240.049,13.6757)"
           id="g587"><path
             id="path589"
             style="fill:#575756;fill-opacity:1;fill-rule:nonzero;stroke:none"
             d="m 0,0 v 9.965 c 0,1.681 0.61,3.276 1.727,4.482 1.13,1.221 2.659,1.907 4.285,1.907 h 0.65 v -2.601 h -0.65 c -1.83,0 -3.41,-1.65 -3.41,-3.788 L 2.602,0 Z" /></g><g
           transform="translate(254.5773,21.1767)"
           id="g591"><path
             id="path593"
             style="fill:#575756;fill-opacity:1;fill-rule:nonzero;stroke:none"
             d="m 0,0 c -0.985,0 -1.884,-0.303 -2.53,-0.815 -0.61,-0.485 -0.891,-1.064 -0.891,-1.633 0,-0.571 0.281,-1.15 0.891,-1.633 0.646,-0.514 1.545,-0.816 2.529,-0.816 0.985,0 1.883,0.302 2.529,0.816 0.611,0.483 0.892,1.062 0.892,1.633 V 0.007 C 3.245,-0.004 3.195,0 3.118,0.003 Z m -4.15,-6.121 c -1.183,0.939 -1.876,2.25 -1.876,3.673 0,1.422 0.693,2.732 1.876,3.672 1.133,0.901 2.608,1.381 4.149,1.381 l 3.168,0.002 c 0.053,0 0.148,0.014 0.189,0.03 0.016,0.027 0.055,0.144 0.064,0.318 v 0.844 c 0,1.23 -1.314,2.449 -3.194,2.449 -1.188,0 -2.217,-0.496 -2.778,-1.249 L -3.331,3.955 -5.419,5.513 -4.64,6.557 c 1.089,1.46 2.914,2.296 4.866,2.296 1.494,0 2.92,-0.49 4.013,-1.402 C 5.37,6.508 6.024,5.204 6.024,3.799 v -6.247 c 0,-1.423 -0.692,-2.734 -1.875,-3.673 -1.134,-0.901 -2.607,-1.382 -4.15,-1.382 -1.542,0 -3.016,0.481 -4.149,1.382" /></g><path
           id="path595"
           style="fill:#575756;fill-opacity:1;fill-rule:nonzero;stroke:none"
           d="m 273.693,35.36 h 2.6 V 13.675 h -2.6 z" /><g
           transform="translate(285.9064,21.1767)"
           id="g597"><path
             id="path599"
             style="fill:#575756;fill-opacity:1;fill-rule:nonzero;stroke:none"
             d="m 0,0 c -0.984,0 -1.883,-0.303 -2.529,-0.815 -0.61,-0.485 -0.892,-1.064 -0.892,-1.633 0,-0.571 0.282,-1.15 0.892,-1.633 0.646,-0.514 1.545,-0.816 2.529,-0.816 0.984,0 1.883,0.302 2.529,0.816 0.61,0.483 0.891,1.062 0.891,1.633 V 0.007 C 3.246,-0.004 3.195,0 3.119,0.003 Z m -4.15,-6.121 c -1.183,0.939 -1.875,2.25 -1.875,3.673 0,1.422 0.692,2.732 1.875,3.672 1.134,0.901 2.608,1.381 4.15,1.381 l 3.168,0.002 c 0.053,0 0.148,0.014 0.188,0.03 0.017,0.027 0.056,0.144 0.064,0.318 v 0.844 c 0,1.23 -1.313,2.449 -3.194,2.449 -1.187,0 -2.216,-0.496 -2.778,-1.249 L -3.33,3.955 -5.418,5.513 -4.64,6.557 c 1.089,1.46 2.914,2.296 4.866,2.296 1.495,0 2.92,-0.49 4.014,-1.402 C 5.371,6.508 6.025,5.204 6.025,3.799 V -2.448 C 6.025,-3.871 5.332,-5.182 4.149,-6.121 3.016,-7.022 1.542,-7.503 0,-7.503 c -1.543,0 -3.016,0.481 -4.15,1.382" /></g><g
           transform="translate(310.4767,21.1767)"
           id="g601"><path
             id="path603"
             style="fill:#575756;fill-opacity:1;fill-rule:nonzero;stroke:none"
             d="m 0,0 c -0.986,0 -1.885,-0.303 -2.531,-0.815 -0.61,-0.485 -0.891,-1.064 -0.891,-1.633 0,-0.571 0.281,-1.15 0.891,-1.633 0.646,-0.514 1.545,-0.816 2.53,-0.816 0.985,0 1.883,0.302 2.529,0.816 0.611,0.483 0.892,1.062 0.892,1.633 V 0.007 C 3.245,-0.004 3.195,0 3.117,0.003 Z m -4.15,-6.121 c -1.184,0.939 -1.876,2.25 -1.876,3.673 0,1.422 0.692,2.732 1.876,3.672 1.133,0.901 2.607,1.381 4.148,1.381 l 3.169,0.002 c 0.052,0 0.148,0.014 0.188,0.03 0.016,0.027 0.056,0.144 0.065,0.318 v 0.844 c 0,1.23 -1.314,2.449 -3.195,2.449 -1.187,0 -2.217,-0.496 -2.778,-1.249 L -3.332,3.955 -5.42,5.513 -4.641,6.557 c 1.09,1.46 2.914,2.296 4.866,2.296 1.494,0 2.921,-0.49 4.013,-1.402 C 5.37,6.508 6.024,5.204 6.024,3.799 v -6.247 c 0,-1.423 -0.692,-2.734 -1.876,-3.673 -1.134,-0.901 -2.607,-1.382 -4.149,-1.382 -1.542,0 -3.016,0.481 -4.149,1.382" /></g><g
           transform="translate(324.1779,14.3564)"
           id="g605"><path
             id="path607"
             style="fill:#575756;fill-opacity:1;fill-rule:nonzero;stroke:none"
             d="m 0,0 c -0.834,0.43 -1.577,1.04 -2.204,1.802 -0.182,0.221 -0.351,0.453 -0.509,0.694 -0.941,1.444 -1.441,3.218 -1.441,4.988 0,1.935 0.596,3.894 1.718,5.408 0.076,0.1 0.153,0.198 0.232,0.295 0.627,0.762 1.37,1.373 2.204,1.802 0.88,0.452 1.855,0.684 2.779,0.684 2.074,0 3.778,-0.852 4.85,-2.289 L 8.406,12.342 6.322,10.787 5.545,11.829 C 4.987,12.577 3.964,13.071 2.787,13.072 1.623,13.07 0.545,12.493 -0.26,11.479 -1.047,10.487 -1.555,9.086 -1.555,7.484 c 0,-1.452 0.417,-2.736 1.082,-3.698 0.818,-1.183 1.99,-1.868 3.26,-1.87 1.177,0.002 2.2,0.496 2.758,1.243 L 6.322,4.201 8.406,2.646 7.629,1.604 C 6.551,0.159 4.789,-0.684 2.779,-0.684 1.799,-0.684 0.869,-0.447 0,0" /></g><g
           transform="translate(339.5704,14.3564)"
           id="g609"><path
             id="path611"
             style="fill:#575756;fill-opacity:1;fill-rule:nonzero;stroke:none"
             d="m 0,0 c -0.834,0.43 -1.577,1.04 -2.204,1.802 -0.182,0.221 -0.351,0.453 -0.509,0.694 -0.941,1.444 -1.441,3.218 -1.441,4.988 0,1.935 0.596,3.894 1.718,5.408 0.076,0.1 0.153,0.198 0.232,0.295 0.627,0.762 1.37,1.373 2.204,1.802 0.88,0.452 1.855,0.684 2.779,0.684 2.074,0 3.778,-0.852 4.85,-2.289 L 8.406,12.342 6.322,10.787 5.545,11.829 C 4.987,12.577 3.964,13.071 2.787,13.072 1.623,13.07 0.545,12.493 -0.26,11.479 -1.047,10.487 -1.555,9.086 -1.555,7.484 c 0,-1.452 0.417,-2.736 1.082,-3.698 0.818,-1.183 1.99,-1.868 3.26,-1.87 1.177,0.002 2.2,0.496 2.758,1.243 L 6.322,4.201 8.406,2.646 7.629,1.604 C 6.551,0.159 4.789,-0.684 2.779,-0.684 1.799,-0.684 0.869,-0.447 0,0" /></g><path
           id="path613"
           style="fill:#575756;fill-opacity:1;fill-rule:nonzero;stroke:none"
           d="m 352.94,30.03 h 2.6 V 13.676 h -2.6 z m 2.203,4.281 c 0.244,-0.235 0.396,-0.569 0.396,-0.934 V 33.02 c 0,-0.718 -0.582,-1.3 -1.3,-1.3 -0.717,0 -1.299,0.582 -1.299,1.3 v 0.357 c 0,0.349 0.14,0.67 0.365,0.903 0.234,0.243 0.568,0.397 0.934,0.397 0.35,0 0.671,-0.141 0.904,-0.366" /><g
           transform="translate(367.5079,35.6215)"
           id="g615"><path
             id="path617"
             style="fill:#575756;fill-opacity:1;fill-rule:nonzero;stroke:none"
             d="m 0,0 1.581,-2.064 -5.314,-4.07 -1.581,2.064 z m 2.872,-13.858 c 0,3.114 -2.108,5.472 -4.482,5.472 -2.374,0 -4.483,-2.358 -4.483,-5.472 0,-3.113 2.109,-5.471 4.483,-5.471 2.374,0 4.482,2.358 4.482,5.471 m 2.601,0 c 0,-2.106 -0.705,-4.108 -2.006,-5.632 -0.642,-0.751 -1.4,-1.35 -2.25,-1.771 -0.889,-0.442 -1.846,-0.668 -2.827,-0.668 -0.982,0 -1.939,0.226 -2.827,0.668 -0.851,0.421 -1.61,1.02 -2.25,1.771 -1.301,1.524 -2.006,3.526 -2.006,5.632 0,2.108 0.705,4.109 2.006,5.633 0.64,0.751 1.399,1.35 2.249,1.771 0.889,0.441 1.846,0.667 2.828,0.667 0.981,0 1.938,-0.226 2.827,-0.667 0.85,-0.421 1.611,-1.024 2.255,-1.777 1.3,-1.523 2.001,-3.519 2.001,-5.627" /></g><g
           transform="translate(386.7648,13.6757)"
           id="g619"><path
             id="path621"
             style="fill:#575756;fill-opacity:1;fill-rule:nonzero;stroke:none"
             d="m 0,0 v 9.971 c 0,2.133 -1.578,3.782 -3.405,3.782 -1.828,0 -3.407,-1.649 -3.407,-3.782 V 0 h -2.6 v 9.971 c 0,1.678 0.609,3.272 1.724,4.477 1.13,1.22 2.657,1.906 4.283,1.906 1.625,0 3.151,-0.686 4.281,-1.906 1.115,-1.205 1.725,-2.799 1.725,-4.477 L 2.601,0 Z" /></g><g
           transform="translate(30.2435,49.0801)"
           id="g623"><path
             id="path625"
             style="fill:#575756;fill-opacity:1;fill-rule:nonzero;stroke:none"
             d="m 0,0 c -5.15,0 -9.526,1.812 -13.13,5.437 -3.605,3.626 -5.407,7.972 -5.407,13.039 v 42.263 c 0,5.15 1.812,9.526 5.437,13.131 3.625,3.605 7.992,5.406 13.1,5.406 5.149,0 9.516,-1.812 13.1,-5.437 3.583,-3.625 5.375,-7.992 5.375,-13.1 V 51.903 H 6.364 v 9.084 c 0,1.854 -0.659,3.439 -1.977,4.758 -1.319,1.318 -2.904,1.977 -4.758,1.977 -1.854,0 -3.429,-0.659 -4.727,-1.977 -1.297,-1.319 -1.946,-2.904 -1.946,-4.758 V 18.599 c 0,-1.854 0.649,-3.429 1.946,-4.727 1.298,-1.298 2.873,-1.946 4.727,-1.946 1.854,0 3.439,0.646 4.758,1.94 1.318,1.294 1.977,2.865 1.977,4.715 v 11.216 h -6.488 v 11.74 H 18.475 V 18.476 c 0,-5.15 -1.813,-9.516 -5.437,-13.1 C 9.413,1.792 5.067,0 0,0" /></g><g
           transform="translate(69.5519,50.0694)"
           id="g627"><path
             id="path629"
             style="fill:#575756;fill-opacity:1;fill-rule:nonzero;stroke:none"
             d="M 0,0 V 77.484 H 33.243 V 65.744 H 11.679 V 44.612 H 27.435 V 32.872 H 11.679 V 11.74 H 33.243 V 0 Z" /></g><g
           transform="translate(146.9242,108.8311)"
           id="g631"><path
             id="path633"
             style="fill:#575756;fill-opacity:1;fill-rule:nonzero;stroke:none"
             d="m 0,0 c 0,4.489 -2.225,6.735 -6.673,6.735 h -7.044 v -24.778 h 7.044 c 1.853,0 3.429,0.659 4.726,1.978 1.298,1.318 1.947,2.904 1.947,4.757 z m -6.982,18.66 c 6.508,0 11.286,-1.791 14.335,-5.375 2.677,-3.131 4.016,-7.498 4.016,-13.099 v -11.247 c 0,-5.478 -2.08,-10.113 -6.241,-13.902 l 8.65,-33.799 H 1.149 l -7.081,29.164 h -1.05 -6.735 V -58.762 H -25.396 V 18.66 Z" /></g><g
           transform="translate(193.091,50.0694)"
           id="g635"><path
             id="path637"
             style="fill:#575756;fill-opacity:1;fill-rule:nonzero;stroke:none"
             d="M 0,0 H -11.679 V 77.484 H 5.08 L 15.964,21.823 26.411,77.484 h 16.1 V 0 H 30.833 V 48.69 L 20.7,0 H 11.308 L 0,48.566 Z" /></g><path
           id="path639"
           style="fill:#ff5a5a;fill-opacity:1;fill-rule:nonzero;stroke:none"
           d="m 268.423,66.079 h -11.679 v 101.437 h 11.679 z" /><g
           transform="translate(302.6775,127.5537)"
           id="g641"><path
             id="path643"
             style="fill:#575756;fill-opacity:1;fill-rule:nonzero;stroke:none"
             d="M 0,0 15.498,-52.074 V 0 H 27.176 V -77.484 H 14.633 L -1.433,-27.867 V -77.484 H -13.111 V 0 Z" /></g><g
           transform="translate(371.4483,109.7578)"
           id="g645"><path
             id="path647"
             style="fill:#575756;fill-opacity:1;fill-rule:nonzero;stroke:none"
             d="m 0,0 -4.325,-30.524 h 8.65 z m -6.135,-41.894 -2.837,-17.794 h -12.16 L -7.97,17.733 H 8.095 L 21.069,-59.688 H 8.791 l -2.732,17.794 z" /></g></g></g></g></svg>