<?xml version="1.0" encoding="utf-8"?>
<!-- Generator: Adobe Illustrator 17.0.0, SVG Export Plug-In . SVG Version: 6.00 Build 0)  -->
<!DOCTYPE svg PUBLIC "-//W3C//DTD SVG 1.1//EN" "http://www.w3.org/Graphics/SVG/1.1/DTD/svg11.dtd">
<svg version="1.1" id="Capa_1" xmlns="http://www.w3.org/2000/svg" xmlns:xlink="http://www.w3.org/1999/xlink" x="0px" y="0px"
	 width="386.666px" height="121.194px" viewBox="0 0 386.666 121.194" enable-background="new 0 0 386.666 121.194"
	 xml:space="preserve">
<g>
	<g>
		<path fill="#AEA299" d="M21.27,120.646c-5.15,0-9.526-1.812-13.13-5.438c-3.605-3.625-5.407-7.972-5.407-13.038V59.906
			c0-5.149,1.812-9.525,5.438-13.131c3.625-3.604,7.991-5.406,13.1-5.406c5.149,0,9.516,1.812,13.1,5.438
			c3.583,3.625,5.375,7.992,5.375,13.1v8.836H27.634v-9.084c0-1.854-0.659-3.438-1.977-4.758c-1.319-1.317-2.904-1.977-4.758-1.977
			c-1.854,0-3.429,0.659-4.727,1.977c-1.297,1.319-1.946,2.904-1.946,4.758v42.389c0,1.854,0.649,3.429,1.946,4.727
			c1.298,1.298,2.873,1.946,4.727,1.946c1.854,0,3.439-0.646,4.758-1.94c1.318-1.294,1.977-2.865,1.977-4.715V90.848h-6.488V79.109
			h18.599v23.061c0,5.149-1.813,9.516-5.438,13.1C30.682,118.854,26.337,120.646,21.27,120.646z"/>
	</g>
	<g>
		<path fill="#AEA299" d="M60.578,119.656V42.172h33.243v11.74H72.257v21.132h15.756v11.74H72.257v21.132h21.564v11.74H60.578z"/>
	</g>
	<g>
		<path fill="#AEA299" d="M130.968,42.235c6.508,0,11.286,1.791,14.335,5.375c2.677,3.131,4.016,7.498,4.016,13.1v11.246
			c0,5.479-2.081,10.113-6.241,13.902l8.649,33.799H139.1l-7.081-29.164c-0.33,0-0.68,0-1.05,0h-6.735v29.164h-11.679V42.235
			H130.968z M137.951,60.895c0-4.489-2.225-6.735-6.673-6.735h-7.044v24.778h7.044c1.854,0,3.429-0.659,4.727-1.978
			c1.298-1.318,1.947-2.904,1.947-4.758V60.895z"/>
	</g>
	<g>
		<path fill="#AEA299" d="M184.117,119.656h-11.679V42.172h16.759l10.884,55.661l10.447-55.661h16.1v77.484H214.95v-48.69
			l-10.133,48.69h-9.392L184.117,71.09V119.656z"/>
	</g>
	<g>
		<path fill="#FF5959" d="M259.45,103.646h-11.679V2.209h11.679V103.646z"/>
	</g>
	<g>
		<path fill="#AEA299" d="M293.704,42.172l15.498,52.074V42.172h11.678v77.484h-12.543l-16.065-49.617v49.617h-11.679V42.172
			H293.704z"/>
	</g>
	<g>
		<path fill="#AEA299" d="M356.34,101.861l-2.837,17.795h-12.16l13.162-77.422h16.064l12.975,77.422h-12.278l-2.732-17.795H356.34z
			 M362.475,59.968l-4.325,30.524h8.65L362.475,59.968z"/>
	</g>
</g>
</svg>
