<?xml version="1.0" encoding="UTF-8" standalone="no"?>
<svg
   xmlns:dc="http://purl.org/dc/elements/1.1/"
   xmlns:cc="http://creativecommons.org/ns#"
   xmlns:rdf="http://www.w3.org/1999/02/22-rdf-syntax-ns#"
   xmlns:svg="http://www.w3.org/2000/svg"
   xmlns="http://www.w3.org/2000/svg"
   viewBox="0 0 541.396 238.01601"
   height="238.01601"
   width="541.396"
   xml:space="preserve"
   id="svg517"
   version="1.1"><metadata
     id="metadata523"><rdf:RDF><cc:Work
         rdf:about=""><dc:format>image/svg+xml</dc:format><dc:type
           rdf:resource="http://purl.org/dc/dcmitype/StillImage" /><dc:title></dc:title></cc:Work></rdf:RDF></metadata><defs
     id="defs521"><clipPath
       id="clipPath533"
       clipPathUnits="userSpaceOnUse"><path
         id="path531"
         d="M 0,178.512 H 406.047 V 0 H 0 Z" /></clipPath></defs><g
     transform="matrix(1.3333333,0,0,-1.3333333,0,238.016)"
     id="g525"><g
       transform="translate(30.2435,49.0801)"
       id="g623"><path
         id="path625"
         style="fill:#575756;fill-opacity:1;fill-rule:nonzero;stroke:none"
         d="m 0,0 c -5.15,0 -9.526,1.812 -13.13,5.437 -3.605,3.626 -5.407,7.972 -5.407,13.039 v 42.263 c 0,5.15 1.812,9.526 5.437,13.131 3.625,3.605 7.992,5.406 13.1,5.406 5.149,0 9.516,-1.812 13.1,-5.437 3.583,-3.625 5.375,-7.992 5.375,-13.1 V 51.903 H 6.364 v 9.084 c 0,1.854 -0.659,3.439 -1.977,4.758 -1.319,1.318 -2.904,1.977 -4.758,1.977 -1.854,0 -3.429,-0.659 -4.727,-1.977 -1.297,-1.319 -1.946,-2.904 -1.946,-4.758 V 18.599 c 0,-1.854 0.649,-3.429 1.946,-4.727 1.298,-1.298 2.873,-1.946 4.727,-1.946 1.854,0 3.439,0.646 4.758,1.94 1.318,1.294 1.977,2.865 1.977,4.715 v 11.216 h -6.488 v 11.74 H 18.475 V 18.476 c 0,-5.15 -1.813,-9.516 -5.437,-13.1 C 9.413,1.792 5.067,0 0,0" /></g><g
       transform="translate(69.5519,50.0694)"
       id="g627"><path
         id="path629"
         style="fill:#575756;fill-opacity:1;fill-rule:nonzero;stroke:none"
         d="M 0,0 V 77.484 H 33.243 V 65.744 H 11.679 V 44.612 H 27.435 V 32.872 H 11.679 V 11.74 H 33.243 V 0 Z" /></g><g
       transform="translate(146.9242,108.8311)"
       id="g631"><path
         id="path633"
         style="fill:#575756;fill-opacity:1;fill-rule:nonzero;stroke:none"
         d="m 0,0 c 0,4.489 -2.225,6.735 -6.673,6.735 h -7.044 v -24.778 h 7.044 c 1.853,0 3.429,0.659 4.726,1.978 1.298,1.318 1.947,2.904 1.947,4.757 z m -6.982,18.66 c 6.508,0 11.286,-1.791 14.335,-5.375 2.677,-3.131 4.016,-7.498 4.016,-13.099 v -11.247 c 0,-5.478 -2.08,-10.113 -6.241,-13.902 l 8.65,-33.799 H 1.149 l -7.081,29.164 h -1.05 -6.735 V -58.762 H -25.396 V 18.66 Z" /></g><g
       transform="translate(193.091,50.0694)"
       id="g635"><path
         id="path637"
         style="fill:#575756;fill-opacity:1;fill-rule:nonzero;stroke:none"
         d="M 0,0 H -11.679 V 77.484 H 5.08 L 15.964,21.823 26.411,77.484 h 16.1 V 0 H 30.833 V 48.69 L 20.7,0 H 11.308 L 0,48.566 Z" /></g><path
       id="path639"
       style="fill:#ff5a5a;fill-opacity:1;fill-rule:nonzero;stroke:none"
       d="m 268.423,66.079 h -11.679 v 101.437 h 11.679 z" /><g
       transform="translate(302.6775,127.5537)"
       id="g641"><path
         id="path643"
         style="fill:#575756;fill-opacity:1;fill-rule:nonzero;stroke:none"
         d="M 0,0 15.498,-52.074 V 0 H 27.176 V -77.484 H 14.633 L -1.433,-27.867 V -77.484 H -13.111 V 0 Z" /></g><g
       transform="translate(371.4483,109.7578)"
       id="g645"><path
         id="path647"
         style="fill:#575756;fill-opacity:1;fill-rule:nonzero;stroke:none"
         d="m 0,0 -4.325,-30.524 h 8.65 z m -6.135,-41.894 -2.837,-17.794 h -12.16 L -7.97,17.733 H 8.095 L 21.069,-59.688 H 8.791 l -2.732,17.794 z" /></g></g></svg>