<?xml version="1.0" encoding="UTF-8" standalone="no"?>
<svg
   xmlns:dc="http://purl.org/dc/elements/1.1/"
   xmlns:cc="http://creativecommons.org/ns#"
   xmlns:rdf="http://www.w3.org/1999/02/22-rdf-syntax-ns#"
   xmlns:svg="http://www.w3.org/2000/svg"
   xmlns="http://www.w3.org/2000/svg"
   xml:space="preserve"
   enable-background="new 0 0 385.787 123.858"
   viewBox="0 0 385.787 123.858"
   height="123.858px"
   width="385.787px"
   y="0px"
   x="0px"
   id="Capa_1"
   version="1.1"><metadata
   id="metadata96"><rdf:RDF><cc:Work
       rdf:about=""><dc:format>image/svg+xml</dc:format><dc:type
         rdf:resource="http://purl.org/dc/dcmitype/StillImage" /><dc:title></dc:title></cc:Work></rdf:RDF></metadata><defs
   id="defs94">
	
	
	
	
	
	
	
</defs>

<path
   d="m 21.062,122.14 c -5.15,0 -9.526,-1.812 -13.13,-5.438 C 4.327,113.077 2.525,108.73 2.525,103.664 V 61.401 c 0,-5.149 1.813,-9.525 5.438,-13.131 3.625,-3.604 7.991,-5.406 13.1,-5.406 5.149,0 9.516,1.812 13.1,5.438 3.583,3.625 5.375,7.992 5.375,13.1 v 8.836 H 27.426 v -9.084 c 0,-1.854 -0.659,-3.438 -1.977,-4.758 -1.319,-1.317 -2.904,-1.977 -4.758,-1.977 -1.854,0 -3.429,0.659 -4.727,1.977 -1.297,1.319 -1.946,2.904 -1.946,4.758 v 42.389 c 0,1.854 0.649,3.429 1.946,4.727 1.298,1.298 2.873,1.946 4.727,1.946 1.854,0 3.439,-0.646 4.758,-1.94 1.318,-1.294 1.977,-2.865 1.977,-4.715 V 92.343 H 20.938 V 80.604 h 18.599 v 23.061 c 0,5.149 -1.813,9.516 -5.438,13.1 -3.625,3.583 -7.97,5.375 -13.037,5.375 z"
   id="path75"
   style="fill:#ffffff" /><path
   d="M 60.37,121.151 V 43.667 h 33.243 v 11.74 H 72.049 v 21.132 h 15.756 v 11.74 H 72.049 v 21.132 h 21.564 v 11.74 z"
   id="path77"
   style="fill:#ffffff" /><path
   d="m 130.76,43.729 c 6.508,0 11.286,1.791 14.335,5.375 2.677,3.131 4.016,7.498 4.016,13.1 V 73.45 c 0,5.479 -2.081,10.113 -6.241,13.902 l 8.649,33.799 H 138.89 l -7.081,-29.164 c -0.33,0 -0.68,0 -1.05,0 h -6.735 v 29.164 H 112.345 V 43.729 Z m 6.982,18.66 c 0,-4.489 -2.225,-6.735 -6.673,-6.735 h -7.044 v 24.778 h 7.044 c 1.854,0 3.429,-0.659 4.727,-1.978 1.298,-1.318 1.947,-2.904 1.947,-4.758 V 62.389 Z"
   id="path79"
   style="fill:#ffffff" /><path
   d="M 183.909,121.151 H 172.23 V 43.667 h 16.759 l 10.884,55.661 10.447,-55.661 h 16.1 v 77.484 h -11.678 v -48.69 l -10.133,48.69 h -9.392 L 183.909,72.585 Z"
   id="path81"
   style="fill:#ffffff" /><path
   d="M 259.241,105.141 H 247.562 V 3.704 h 11.679 z"
   id="path83"
   style="fill:#ffffff" /><path
   d="m 293.496,43.667 15.498,52.074 V 43.667 h 11.678 v 77.484 H 308.129 L 292.064,71.534 v 49.617 H 280.385 V 43.667 Z"
   id="path85"
   style="fill:#ffffff" /><path
   d="m 356.132,103.356 -2.837,17.795 h -12.16 l 13.162,-77.422 h 16.064 l 12.975,77.422 h -12.278 l -2.732,-17.795 z m 6.134,-41.893 -4.325,30.524 h 8.65 z"
   id="path87"
   style="fill:#ffffff" />
</svg>