<?xml version="1.0" encoding="utf-8"?>
<!-- Generator: Adobe Illustrator 17.0.0, SVG Export Plug-In . SVG Version: 6.00 Build 0)  -->
<!DOCTYPE svg PUBLIC "-//W3C//DTD SVG 1.1//EN" "http://www.w3.org/Graphics/SVG/1.1/DTD/svg11.dtd">
<svg version="1.1" id="Capa_1" xmlns="http://www.w3.org/2000/svg" xmlns:xlink="http://www.w3.org/1999/xlink" x="0px" y="0px"
	 width="385.787px" height="123.858px" viewBox="0 0 385.787 123.858" enable-background="new 0 0 385.787 123.858"
	 xml:space="preserve">
<rect x="-9.182" y="-7.291" fill="none" width="406.047" height="178.512"/>
<g>
	<path fill="#575756" d="M21.062,122.14c-5.15,0-9.526-1.812-13.13-5.438c-3.605-3.625-5.407-7.972-5.407-13.038V61.401
		c0-5.149,1.813-9.525,5.438-13.131c3.625-3.604,7.991-5.406,13.1-5.406c5.149,0,9.516,1.812,13.1,5.438
		c3.583,3.625,5.375,7.992,5.375,13.1v8.836H27.426v-9.084c0-1.854-0.659-3.438-1.977-4.758c-1.319-1.317-2.904-1.977-4.758-1.977
		c-1.854,0-3.429,0.659-4.727,1.977c-1.297,1.319-1.946,2.904-1.946,4.758v42.389c0,1.854,0.649,3.429,1.946,4.727
		c1.298,1.298,2.873,1.946,4.727,1.946c1.854,0,3.439-0.646,4.758-1.94c1.318-1.294,1.977-2.865,1.977-4.715V92.343h-6.488V80.604
		h18.599v23.061c0,5.149-1.813,9.516-5.438,13.1C30.474,120.348,26.129,122.14,21.062,122.14z"/>
	<path fill="#575756" d="M60.37,121.151V43.667h33.243v11.74H72.049v21.132h15.756v11.74H72.049v21.132h21.564v11.74H60.37z"/>
	<path fill="#575756" d="M130.76,43.729c6.508,0,11.286,1.791,14.335,5.375c2.677,3.131,4.016,7.498,4.016,13.1V73.45
		c0,5.479-2.081,10.113-6.241,13.902l8.649,33.799h-12.629l-7.081-29.164c-0.33,0-0.68,0-1.05,0h-6.735v29.164h-11.679V43.729
		H130.76z M137.742,62.389c0-4.489-2.225-6.735-6.673-6.735h-7.044v24.778h7.044c1.854,0,3.429-0.659,4.727-1.978
		c1.298-1.318,1.947-2.904,1.947-4.758V62.389z"/>
	<path fill="#575756" d="M183.909,121.151H172.23V43.667h16.759l10.884,55.661l10.447-55.661h16.1v77.484h-11.678v-48.69
		l-10.133,48.69h-9.392l-11.308-48.566V121.151z"/>
	<path fill="#EA5A5E" d="M259.241,105.141h-11.679V3.704h11.679V105.141z"/>
	<path fill="#575756" d="M293.496,43.667l15.498,52.074V43.667h11.678v77.484h-12.543l-16.065-49.617v49.617h-11.679V43.667H293.496
		z"/>
	<path fill="#575756" d="M356.132,103.356l-2.837,17.795h-12.16l13.162-77.422h16.064l12.975,77.422h-12.278l-2.732-17.795H356.132z
		 M362.266,61.463l-4.325,30.524h8.65L362.266,61.463z"/>
</g>
</svg>
