<?xml version="1.0" encoding="utf-8"?>
<!-- Generator: Adobe Illustrator 17.0.0, SVG Export Plug-In . SVG Version: 6.00 Build 0)  -->
<!DOCTYPE svg PUBLIC "-//W3C//DTD SVG 1.1//EN" "http://www.w3.org/Graphics/SVG/1.1/DTD/svg11.dtd">
<svg version="1.1" id="Capa_1" xmlns="http://www.w3.org/2000/svg" xmlns:xlink="http://www.w3.org/1999/xlink" x="0px" y="0px"
	 width="406.047px" height="178.512px" viewBox="0 0 406.047 178.512" enable-background="new 0 0 406.047 178.512"
	 xml:space="preserve">
<g>
	<path fill="#AEA299" d="M18.318,164.155c-0.835-0.43-1.578-1.04-2.205-1.802c-0.182-0.222-0.352-0.453-0.508-0.694
		c-0.941-1.444-1.442-3.218-1.442-4.988c0-1.935,0.597-3.894,1.719-5.407c0.075-0.101,0.151-0.198,0.231-0.295
		c0.627-0.763,1.37-1.373,2.205-1.803c0.879-0.452,1.855-0.684,2.779-0.684c2.073,0,3.777,0.852,4.85,2.289l0.777,1.042
		l-2.084,1.555l-0.777-1.042c-0.558-0.748-1.581-1.242-2.758-1.243c-1.163,0.002-2.242,0.579-3.046,1.593
		c-0.788,0.992-1.294,2.394-1.294,3.995c0,1.452,0.417,2.736,1.081,3.698c0.818,1.184,1.99,1.868,3.26,1.87
		c1.177-0.002,2.201-0.496,2.758-1.243l0.777-1.042l2.084,1.555l-0.777,1.042c-1.078,1.445-2.84,2.288-4.85,2.288
		C20.117,164.839,19.187,164.603,18.318,164.155z"/>
	<path fill="#AEA299" d="M33.86,164.145c-0.859-0.426-1.626-1.032-2.275-1.792c-1.316-1.541-2.029-3.566-2.029-5.698
		c0-2.133,0.713-4.158,2.029-5.699c0.648-0.76,1.416-1.366,2.275-1.792c0.899-0.445,1.867-0.675,2.859-0.675
		s1.959,0.229,2.859,0.675c0.86,0.426,1.626,1.032,2.275,1.792c1.315,1.541,2.028,3.566,2.028,5.699
		c0,2.132-0.713,4.157-2.028,5.698c-0.649,0.76-1.416,1.366-2.275,1.792c-0.899,0.445-1.867,0.675-2.859,0.675
		S34.759,164.59,33.86,164.145z M32.156,156.654c0,3.165,2.145,5.564,4.562,5.564s4.562-2.399,4.562-5.564
		c0-3.166-2.145-5.565-4.562-5.565S32.156,153.488,32.156,156.654z"/>
	<path fill="#AEA299" d="M56.908,164.836v-9.971c0-2.134-1.578-3.782-3.406-3.782s-3.406,1.648-3.406,3.782v9.971h-2.6v-9.971
		c0-1.679,0.609-3.272,1.725-4.478c1.129-1.22,2.656-1.905,4.281-1.905c1.625,0,3.152,0.686,4.282,1.905
		c1.115,1.205,1.724,2.799,1.724,4.478v9.971H56.908z"/>
	<path fill="#AEA299" d="M67.477,164.145c-0.859-0.426-1.626-1.032-2.275-1.792c-1.316-1.541-2.029-3.566-2.029-5.698
		c0-2.133,0.713-4.158,2.029-5.699c0.648-0.76,1.416-1.366,2.275-1.792c0.899-0.445,1.867-0.675,2.859-0.675
		s1.959,0.229,2.859,0.675c0.86,0.426,1.626,1.032,2.275,1.792c1.315,1.541,2.028,3.566,2.028,5.699
		c0,2.132-0.713,4.157-2.028,5.698c-0.649,0.76-1.416,1.366-2.275,1.792c-0.899,0.445-1.867,0.675-2.859,0.675
		S68.377,164.59,67.477,164.145z M65.774,156.654c0,3.165,2.145,5.564,4.562,5.564s4.562-2.399,4.562-5.564
		c0-3.166-2.145-5.565-4.562-5.565S65.774,153.488,65.774,156.654z"/>
	<path fill="#AEA299" d="M85.034,164.155c-0.835-0.43-1.578-1.04-2.205-1.802c-0.182-0.222-0.352-0.453-0.508-0.694
		c-0.941-1.444-1.442-3.218-1.442-4.988c0-1.935,0.597-3.894,1.719-5.407c0.075-0.101,0.151-0.198,0.231-0.295
		c0.627-0.763,1.37-1.373,2.205-1.803c0.879-0.452,1.855-0.684,2.779-0.684c2.073,0,3.777,0.852,4.85,2.289l0.777,1.042
		l-2.084,1.555l-0.777-1.042c-0.558-0.748-1.581-1.242-2.758-1.243c-1.163,0.002-2.242,0.579-3.046,1.593
		c-0.788,0.992-1.294,2.394-1.294,3.995c0,1.452,0.417,2.736,1.081,3.698c0.818,1.184,1.99,1.868,3.26,1.87
		c1.177-0.002,2.201-0.496,2.758-1.243l0.777-1.042l2.084,1.555l-0.777,1.042c-1.078,1.445-2.84,2.288-4.85,2.288
		C86.833,164.839,85.903,164.603,85.034,164.155z"/>
	<path fill="#AEA299" d="M100.607,144.2c0.243,0.235,0.396,0.569,0.396,0.935v0.356c0,0.719-0.583,1.301-1.3,1.301
		s-1.3-0.582-1.3-1.301v-0.356c0-0.35,0.14-0.67,0.365-0.903c0.235-0.243,0.569-0.396,0.935-0.396
		C100.052,143.835,100.374,143.976,100.607,144.2z M98.403,148.481h2.6v16.354h-2.6V148.481z"/>
	<path fill="#AEA299" d="M126.509,154.865v9.971h-2.6v-9.971c0-2.134-1.578-3.782-3.406-3.782s-3.406,1.648-3.406,3.782v9.971h-2.6
		v-9.971c0-2.134-1.578-3.782-3.406-3.782c-1.828,0-3.406,1.648-3.406,3.782v9.971h-2.6v-9.971c0-1.679,0.609-3.272,1.725-4.478
		c1.129-1.22,2.656-1.905,4.281-1.905s3.152,0.686,4.282,1.905c0.15,0.163,0.295,0.339,0.424,0.51
		c0.164-0.217,0.268-0.341,0.424-0.51c1.129-1.22,2.656-1.905,4.282-1.905s3.145,0.678,4.274,1.898
		C125.895,151.587,126.509,153.187,126.509,154.865z"/>
	<path fill="#AEA299" d="M134.978,144.2c0.243,0.235,0.396,0.569,0.396,0.935v0.356c0,0.719-0.583,1.301-1.3,1.301
		s-1.3-0.582-1.3-1.301v-0.356c0-0.35,0.14-0.67,0.365-0.903c0.235-0.243,0.569-0.396,0.935-0.396
		C134.424,143.835,134.745,143.976,134.978,144.2z M132.775,148.481h2.6v16.354h-2.6V148.481z"/>
	<path fill="#AEA299" d="M141.394,162.346c-0.881-1.076-1.478-2.405-1.755-3.8c-0.031-0.129-0.183-0.821-0.183-1.887
		c0-2.125,0.684-4.146,1.952-5.688c0.627-0.763,1.371-1.374,2.207-1.804c0.869-0.447,1.807-0.685,2.774-0.685
		c1.594,0,2.888,0.413,3.878,1.227c0.951,0.781,1.501,1.882,1.501,3.075c0,1.253-0.624,2.432-1.657,3.244
		c-1.113,0.875-2.621,1.301-4.327,1.301h-3.556c0,0-0.023,0-0.055,0.006c-0.058,0.078-0.059,0.256-0.053,0.293l0.004,0.02
		l0.003,0.023c0.389,2.691,2.249,4.563,4.281,4.563c1.438,0,2.428-0.463,3.012-1.245l0.778-1.043l2.085,1.556l-0.778,1.043
		c-0.792,1.062-2.358,2.291-5.097,2.291C144.48,164.836,142.692,163.93,141.394,162.346z M142.328,154.728h3.457
		c1.212,0,2.141-0.29,2.719-0.744c0.462-0.363,0.663-0.788,0.663-1.199c0-0.662-0.63-1.697-2.763-1.7
		C144.608,151.087,142.969,152.542,142.328,154.728z"/>
	<path fill="#AEA299" d="M164.494,164.836v-9.971c0-2.134-1.578-3.782-3.406-3.782s-3.406,1.648-3.406,3.782v9.971h-2.6v-9.971
		c0-1.679,0.609-3.272,1.725-4.478c1.129-1.22,2.656-1.905,4.281-1.905s3.152,0.686,4.282,1.905
		c1.115,1.205,1.724,2.799,1.724,4.478v9.971H164.494z"/>
	<path fill="#AEA299" d="M177.611,162.232h0.65v2.604h-0.65c-1.629,0-3.159-0.688-4.292-1.91c-1.118-1.207-1.729-2.805-1.729-4.487
		v-15.287h2.604v5.629c0.203-0.019,0.274-0.021,0.429-0.021h3.637v2.604h-3.637c-0.267,0-0.389,0.06-0.401,0.067
		c-0.01,0.018-0.026,0.098-0.028,0.118v6.89C174.195,160.579,175.778,162.232,177.611,162.232z"/>
	<path fill="#AEA299" d="M185.359,164.145c-0.859-0.426-1.626-1.032-2.275-1.792c-1.316-1.541-2.029-3.566-2.029-5.698
		c0-2.133,0.713-4.158,2.029-5.699c0.648-0.76,1.416-1.366,2.275-1.792c0.899-0.445,1.867-0.675,2.859-0.675
		s1.959,0.229,2.859,0.675c0.86,0.426,1.626,1.032,2.275,1.792c1.315,1.541,2.028,3.566,2.028,5.699
		c0,2.132-0.713,4.157-2.028,5.698c-0.649,0.76-1.416,1.366-2.275,1.792c-0.899,0.445-1.867,0.675-2.859,0.675
		S186.258,164.59,185.359,164.145z M183.655,156.654c0,3.165,2.145,5.564,4.562,5.564s4.562-2.399,4.562-5.564
		c0-3.166-2.145-5.565-4.562-5.565S183.655,153.488,183.655,156.654z"/>
	<path fill="#AEA299" d="M220.693,156.397c0,2.146-0.839,4.171-2.356,5.688c-1.518,1.517-3.542,2.355-5.691,2.355l-1.055-0.003
		c-0.268,0-0.391,0.062-0.398,0.067c-0.014,0.022-0.027,0.108-0.027,0.108v5.422h-2.602V148.35h4.085c2.146,0,4.153,0.82,5.67,2.338
		C219.841,152.213,220.693,154.251,220.693,156.397z M211.594,161.838l1.055,0.003c2.999,0,5.443-2.443,5.443-5.443
		c0-3.001-2.443-5.444-5.444-5.444h-1.483v10.905C211.367,161.84,211.437,161.838,211.594,161.838z"/>
	<path fill="#AEA299" d="M225.442,163.456c-1.184-0.939-1.876-2.25-1.876-3.673c0-1.422,0.692-2.732,1.876-3.672
		c1.134-0.901,2.607-1.382,4.148-1.382l3.169-0.002c0.052,0,0.148-0.014,0.188-0.029c0.016-0.027,0.056-0.145,0.064-0.318v-0.844
		c0-1.23-1.313-2.449-3.195-2.449c-1.187,0-2.217,0.496-2.777,1.249l-0.779,1.044l-2.088-1.558l0.779-1.044
		c1.09-1.46,2.914-2.296,4.865-2.296c1.494,0,2.922,0.489,4.014,1.401c1.132,0.943,1.786,2.247,1.786,3.652v6.247
		c0,1.423-0.692,2.733-1.876,3.673c-1.135,0.901-2.607,1.382-4.149,1.382S226.575,164.357,225.442,163.456z M229.592,157.335
		c-0.986,0-1.885,0.303-2.531,0.815c-0.609,0.484-0.891,1.063-0.891,1.633c0,0.57,0.281,1.149,0.891,1.633
		c0.646,0.514,1.545,0.816,2.53,0.816s1.883-0.303,2.529-0.816c0.61-0.483,0.892-1.062,0.892-1.633v-2.455
		c-0.175,0.011-0.225,0.007-0.303,0.004L229.592,157.335z"/>
	<path fill="#AEA299" d="M240.049,164.836v-9.965c0-1.681,0.609-3.276,1.727-4.482c1.13-1.221,2.658-1.907,4.285-1.907h0.65v2.602
		h-0.65c-1.83,0-3.41,1.65-3.41,3.788v9.965h-2.602V164.836z"/>
	<path fill="#AEA299" d="M250.427,163.456c-1.183-0.939-1.876-2.25-1.876-3.673c0-1.422,0.693-2.732,1.876-3.672
		c1.134-0.901,2.608-1.382,4.149-1.382l3.168-0.002c0.053,0,0.148-0.014,0.189-0.029c0.016-0.027,0.055-0.145,0.063-0.318v-0.844
		c0-1.23-1.313-2.449-3.194-2.449c-1.188,0-2.217,0.496-2.777,1.249l-0.779,1.044l-2.088-1.558l0.779-1.044
		c1.089-1.46,2.914-2.296,4.865-2.296c1.494,0,2.921,0.489,4.014,1.401c1.131,0.943,1.785,2.247,1.785,3.652v6.247
		c0,1.423-0.692,2.733-1.875,3.673c-1.135,0.901-2.607,1.382-4.15,1.382C253.034,164.838,251.561,164.357,250.427,163.456z
		 M254.577,157.335c-0.985,0-1.884,0.303-2.53,0.815c-0.609,0.484-0.891,1.063-0.891,1.633c0,0.57,0.281,1.149,0.891,1.633
		c0.646,0.514,1.545,0.816,2.529,0.816c0.985,0,1.883-0.303,2.529-0.816c0.61-0.483,0.892-1.062,0.892-1.633v-2.455
		c-0.175,0.011-0.225,0.007-0.302,0.004L254.577,157.335z"/>
	<path fill="#AEA299" d="M273.693,143.151h2.601v21.685h-2.601V143.151z"/>
	<path fill="#AEA299" d="M281.756,163.456c-1.184-0.939-1.875-2.25-1.875-3.673c0-1.422,0.691-2.732,1.875-3.672
		c1.135-0.901,2.607-1.382,4.149-1.382l3.169-0.002c0.052,0,0.148-0.014,0.188-0.029c0.017-0.027,0.057-0.145,0.064-0.318v-0.844
		c0-1.23-1.312-2.449-3.195-2.449c-1.186,0-2.216,0.496-2.777,1.249l-0.778,1.044l-2.088-1.558l0.778-1.044
		c1.09-1.46,2.914-2.296,4.865-2.296c1.495,0,2.922,0.489,4.015,1.401c1.132,0.943,1.786,2.247,1.786,3.652v6.247
		c0,1.423-0.693,2.733-1.877,3.673c-1.134,0.901-2.607,1.382-4.148,1.382C284.363,164.838,282.891,164.357,281.756,163.456z
		 M285.906,157.335c-0.985,0-1.884,0.303-2.53,0.815c-0.609,0.484-0.892,1.063-0.892,1.633c0,0.57,0.282,1.149,0.892,1.633
		c0.646,0.514,1.545,0.816,2.53,0.816c0.984,0,1.883-0.303,2.529-0.816c0.609-0.483,0.891-1.062,0.891-1.633v-2.455
		c-0.174,0.011-0.225,0.007-0.302,0.004L285.906,157.335z"/>
	<path fill="#AEA299" d="M306.326,163.456c-1.184-0.939-1.876-2.25-1.876-3.673c0-1.422,0.692-2.732,1.876-3.672
		c1.134-0.901,2.607-1.382,4.148-1.382l3.169-0.002c0.052,0,0.148-0.014,0.188-0.029c0.016-0.027,0.056-0.145,0.064-0.318v-0.844
		c0-1.23-1.313-2.449-3.195-2.449c-1.187,0-2.217,0.496-2.777,1.249l-0.779,1.044l-2.088-1.558l0.779-1.044
		c1.09-1.46,2.914-2.296,4.865-2.296c1.494,0,2.922,0.489,4.014,1.401c1.132,0.943,1.786,2.247,1.786,3.652v6.247
		c0,1.423-0.692,2.733-1.876,3.673c-1.135,0.901-2.607,1.382-4.149,1.382S307.46,164.357,306.326,163.456z M310.477,157.335
		c-0.986,0-1.885,0.303-2.531,0.815c-0.609,0.484-0.891,1.063-0.891,1.633c0,0.57,0.281,1.149,0.891,1.633
		c0.646,0.514,1.545,0.816,2.53,0.816s1.883-0.303,2.529-0.816c0.61-0.483,0.892-1.062,0.892-1.633v-2.455
		c-0.175,0.011-0.225,0.007-0.303,0.004L310.477,157.335z"/>
	<path fill="#AEA299" d="M324.179,164.155c-0.835-0.43-1.577-1.04-2.204-1.802c-0.182-0.222-0.352-0.453-0.509-0.694
		c-0.941-1.444-1.442-3.218-1.442-4.988c0-1.935,0.598-3.894,1.72-5.407c0.075-0.101,0.151-0.198,0.231-0.295
		c0.627-0.763,1.369-1.373,2.204-1.803c0.88-0.452,1.855-0.684,2.778-0.684c2.074,0,3.777,0.852,4.85,2.289l0.777,1.042
		l-2.084,1.555l-0.777-1.042c-0.557-0.748-1.58-1.242-2.758-1.243c-1.163,0.002-2.242,0.579-3.047,1.593
		c-0.787,0.992-1.294,2.394-1.294,3.995c0,1.452,0.417,2.736,1.081,3.698c0.818,1.184,1.99,1.868,3.26,1.87
		c1.178-0.002,2.201-0.496,2.758-1.243l0.777-1.042l2.084,1.555l-0.777,1.042c-1.078,1.445-2.84,2.288-4.85,2.288
		C325.977,164.839,325.047,164.603,324.179,164.155z"/>
	<path fill="#AEA299" d="M339.57,164.155c-0.835-0.43-1.578-1.04-2.205-1.802c-0.182-0.222-0.352-0.453-0.508-0.694
		c-0.941-1.444-1.441-3.218-1.441-4.988c0-1.935,0.596-3.894,1.719-5.407c0.074-0.101,0.151-0.198,0.23-0.295
		c0.627-0.763,1.37-1.373,2.205-1.803c0.879-0.452,1.855-0.684,2.779-0.684c2.072,0,3.777,0.852,4.85,2.289l0.777,1.042
		l-2.084,1.555l-0.777-1.042c-0.559-0.748-1.582-1.242-2.759-1.243c-1.163,0.002-2.241,0.579-3.046,1.593
		c-0.788,0.992-1.295,2.394-1.295,3.995c0,1.452,0.416,2.736,1.081,3.698c0.817,1.184,1.989,1.868,3.26,1.87
		c1.177-0.002,2.2-0.496,2.759-1.243l0.777-1.042l2.084,1.555l-0.777,1.042c-1.078,1.445-2.841,2.288-4.85,2.288
		C341.369,164.839,340.44,164.603,339.57,164.155z"/>
	<path fill="#AEA299" d="M355.143,144.2c0.244,0.235,0.396,0.569,0.396,0.935v0.356c0,0.719-0.582,1.301-1.3,1.301
		s-1.3-0.582-1.3-1.301v-0.356c0-0.35,0.141-0.67,0.365-0.903c0.234-0.243,0.568-0.396,0.935-0.396
		C354.589,143.835,354.91,143.976,355.143,144.2z M352.94,148.481h2.6v16.354h-2.6V148.481z"/>
	<path fill="#AEA299" d="M372.981,156.748c0,2.106-0.705,4.108-2.006,5.632c-0.642,0.751-1.399,1.351-2.25,1.771
		c-0.889,0.441-1.846,0.668-2.827,0.668s-1.938-0.227-2.827-0.668c-0.851-0.421-1.609-1.021-2.25-1.771
		c-1.301-1.523-2.006-3.525-2.006-5.632c0-2.107,0.705-4.109,2.006-5.633c0.641-0.751,1.399-1.351,2.249-1.771
		c0.89-0.44,1.847-0.667,2.828-0.667s1.938,0.227,2.827,0.667c0.851,0.421,1.611,1.024,2.255,1.777
		C372.28,152.645,372.981,154.641,372.981,156.748z M370.38,156.748c0-3.114-2.108-5.472-4.482-5.472s-4.482,2.357-4.482,5.472
		c0,3.113,2.108,5.471,4.482,5.471S370.38,159.861,370.38,156.748z M367.508,142.89l1.581,2.064l-5.314,4.07l-1.581-2.064
		L367.508,142.89z"/>
	<path fill="#AEA299" d="M386.766,164.836v-9.971c0-2.134-1.578-3.782-3.406-3.782s-3.406,1.648-3.406,3.782v9.971h-2.6v-9.971
		c0-1.679,0.609-3.272,1.725-4.478c1.129-1.22,2.656-1.905,4.281-1.905s3.152,0.686,4.281,1.905
		c1.115,1.205,1.725,2.799,1.725,4.478v9.971H386.766z"/>
</g>
<g>
	<path fill="#AEA299" d="M30.243,129.432c-5.15,0-9.526-1.813-13.13-5.438c-3.605-3.625-5.407-7.972-5.407-13.038V68.692
		c0-5.149,1.812-9.525,5.437-13.131c3.625-3.604,7.991-5.406,13.1-5.406c5.149,0,9.516,1.812,13.1,5.438
		c3.583,3.625,5.375,7.992,5.375,13.1v8.836h-12.11v-9.084c0-1.854-0.659-3.438-1.977-4.758c-1.319-1.317-2.904-1.977-4.758-1.977
		s-3.429,0.659-4.727,1.977c-1.297,1.319-1.946,2.904-1.946,4.758v42.389c0,1.854,0.649,3.429,1.946,4.727
		c1.298,1.298,2.873,1.946,4.727,1.946c1.854,0,3.439-0.646,4.758-1.94c1.318-1.294,1.977-2.865,1.977-4.715V99.634H30.12V87.895
		h18.599v23.061c0,5.149-1.813,9.516-5.438,13.1C39.656,127.64,35.31,129.432,30.243,129.432z"/>
</g>
<g>
	<path fill="#AEA299" d="M69.552,128.442V50.958h33.243v11.74H81.231V83.83h15.756v11.74H81.231v21.132h21.564v11.74H69.552z"/>
</g>
<g>
	<path fill="#AEA299" d="M139.942,51.02c6.508,0,11.286,1.791,14.335,5.375c2.677,3.131,4.016,7.498,4.016,13.1v11.246
		c0,5.479-2.081,10.113-6.241,13.902l8.649,33.799h-12.629l-7.081-29.164c-0.33,0-0.68,0-1.05,0h-6.735v29.164h-11.679V51.02
		H139.942z M146.924,69.681c0-4.489-2.225-6.735-6.673-6.735h-7.044v24.778h7.044c1.854,0,3.429-0.659,4.727-1.978
		c1.298-1.318,1.947-2.904,1.947-4.758V69.681H146.924z"/>
</g>
<g>
	<path fill="#AEA299" d="M193.091,128.442h-11.679V50.958h16.759l10.884,55.661l10.447-55.661h16.1v77.484h-11.678v-48.69
		l-10.133,48.69h-9.392l-11.308-48.566L193.091,128.442L193.091,128.442z"/>
</g>
<g>
	<path fill="#AEA299" d="M302.678,50.958l15.498,52.074V50.958h11.678v77.484H317.31l-16.065-49.617v49.617h-11.679V50.958H302.678z
		"/>
</g>
<g>
	<path fill="#AEA299" d="M365.314,110.647l-2.837,17.795h-12.16l13.162-77.422h16.064l12.975,77.422H380.24l-2.732-17.795H365.314z
		 M371.448,68.754l-4.325,30.524h8.65L371.448,68.754z"/>
</g>
</svg>
