<svg width="76" height="100" viewBox="0 0 76 100" fill="none" xmlns="http://www.w3.org/2000/svg">
<path d="M66.1174 0H9.86743C4.6897 0 0.492432 4.19727 0.492432 9.375V90.625C0.492432 95.8008 4.6897 100 9.86743 100H66.1174C71.2952 100 75.4924 95.8027 75.4924 90.625V9.375C75.4924 4.19727 71.2932 0 66.1174 0ZM37.9924 31.25C44.8967 31.25 50.4924 36.8457 50.4924 43.75C50.4924 50.6543 44.8967 56.25 37.9924 56.25C31.0881 56.25 25.4924 50.6445 25.4924 43.75C25.4924 36.8555 31.0979 31.25 37.9924 31.25ZM56.7424 81.25H19.2424C17.5167 81.25 16.1174 79.8508 16.1174 78.125C16.1174 69.4922 23.1096 62.5 31.7424 62.5H44.2424C52.8713 62.5 59.8674 69.4961 59.8674 78.125C59.8674 79.8438 58.4612 81.25 56.7424 81.25ZM47.3674 18.75H28.6174C26.8987 18.75 25.4924 17.3516 25.4924 15.625C25.4924 13.8984 26.8987 12.5 28.6174 12.5H47.3674C49.0862 12.5 50.4924 13.8984 50.4924 15.625C50.4924 17.3516 49.0862 18.75 47.3674 18.75Z" fill="#333333"/>
</svg>
