<svg width="48" height="48" viewBox="0 0 48 48" fill="none" xmlns="http://www.w3.org/2000/svg">
<path d="M35.2321 28.8004H33.3361L32.6641 28.1524C35.0973 25.33 36.4347 21.7269 36.4321 18.0004C36.4321 13.863 34.7885 9.89509 31.8629 6.96952C28.9374 4.04396 24.9694 2.40039 20.8321 2.40039C12.6241 2.40039 5.90405 8.73639 5.30405 16.8004H10.1521C10.7521 11.4004 15.2641 7.20039 20.8321 7.20039C26.8081 7.20039 31.6321 12.0244 31.6321 18.0004C31.6321 23.9764 26.8081 28.8004 20.8321 28.8004C20.4241 28.8004 20.0401 28.7284 19.6321 28.6804V33.5284C20.0401 33.5764 20.4241 33.6004 20.8321 33.6004C24.6961 33.6004 28.2481 32.1844 30.9841 29.8324L31.6321 30.5044V32.4004L43.6321 44.3764L47.2081 40.8004L35.2321 28.8004V28.8004Z" fill="#585857"/>
<path d="M13.56 21.1689L7.632 27.0969L1.704 21.1689L0 22.8729L5.928 28.8009L0 34.7289L1.704 36.4329L7.632 30.5049L13.56 36.4329L15.264 34.7289L9.336 28.8009L15.264 22.8729L13.56 21.1689Z" fill="#585857"/>
</svg>
