<svg width="74" height="74" viewBox="0 0 74 74" fill="none" xmlns="http://www.w3.org/2000/svg">
<mask id="path-1-inside-1_448_1188" fill="white">
<path fill-rule="evenodd" clip-rule="evenodd" d="M70.3 1.23334H3.70001V67.8333H29.8794L37 74L44.1207 67.8333H70.3V1.23334Z"/>
</mask>
<path fill-rule="evenodd" clip-rule="evenodd" d="M70.3 1.23334H3.70001V67.8333H29.8794L37 74L44.1207 67.8333H70.3V1.23334Z" fill="white"/>
<path d="M3.70001 1.23334V0.233337H2.70001V1.23334H3.70001ZM70.3 1.23334H71.3V0.233337H70.3V1.23334ZM3.70001 67.8333H2.70001V68.8333H3.70001V67.8333ZM29.8794 67.8333L30.534 67.0774L30.2522 66.8333H29.8794V67.8333ZM37 74L36.3454 74.7559L37 75.3229L37.6547 74.7559L37 74ZM44.1207 67.8333V66.8333H43.7478L43.466 67.0774L44.1207 67.8333ZM70.3 67.8333V68.8333H71.3V67.8333H70.3ZM3.70001 2.23334H70.3V0.233337H3.70001V2.23334ZM4.70001 67.8333V1.23334H2.70001V67.8333H4.70001ZM29.8794 66.8333H3.70001V68.8333H29.8794V66.8333ZM37.6547 73.2441L30.534 67.0774L29.2247 68.5893L36.3454 74.7559L37.6547 73.2441ZM43.466 67.0774L36.3454 73.2441L37.6547 74.7559L44.7753 68.5893L43.466 67.0774ZM70.3 66.8333H44.1207V68.8333H70.3V66.8333ZM69.3 1.23334V67.8333H71.3V1.23334H69.3Z" fill="#A23036" mask="url(#path-1-inside-1_448_1188)"/>
<path d="M61.0799 53.6449V53.65C61.0799 55.0953 59.9913 56.2333 58.5833 56.2333H15.3299C13.9994 56.2333 12.8333 55.0857 12.8333 53.65C12.8333 45.4113 19.5122 38.7333 27.75 38.7333H46.1633C54.4944 38.7333 61.1638 45.4101 61.0799 53.6449ZM50.375 21.275C50.375 28.6619 44.3869 34.65 37 34.65C29.6159 34.65 23.625 28.6618 23.625 21.275C23.625 13.8881 29.614 7.89999 37 7.89999C44.3869 7.89999 50.375 13.8881 50.375 21.275Z" fill="white" stroke="#585857"/>
<path d="M39.2407 25.2148C39.2407 26.4523 38.2375 27.4555 37 27.4555C35.7624 27.4555 34.7592 26.4523 34.7592 25.2148C34.7592 23.9773 35.7624 22.9741 37 22.9741C38.2375 22.9741 39.2407 23.9773 39.2407 25.2148Z" fill="white" stroke="#CB3C43"/>
<line x1="12.3333" y1="61.2148" x2="61.6666" y2="61.2148" stroke="#CB3C43" stroke-width="2"/>
</svg>
